<mxfile host="app.diagrams.net" agent="Mozilla/5.0 (Windows NT 10.0; Win64; x64) AppleWebKit/537.36 (KHTML, like Gecko) Chrome/134.0.0.0 Safari/537.36 OPR/119.0.0.0" version="28.0.3">
  <diagram id="C5RBs43oDa-KdzZeNtuy" name="Page-1">
    <mxGraphModel dx="4473" dy="1454" grid="1" gridSize="10" guides="1" tooltips="1" connect="1" arrows="1" fold="1" page="1" pageScale="1" pageWidth="827" pageHeight="1169" math="0" shadow="0">
      <root>
        <mxCell id="WIyWlLk6GJQsqaUBKTNV-0" />
        <mxCell id="WIyWlLk6GJQsqaUBKTNV-1" parent="WIyWlLk6GJQsqaUBKTNV-0" />
        <mxCell id="M7CGMbNuYNeq0SnUNNgH-6" value="ทบทวนสัญลักษณ์" style="swimlane;fontFamily=Sarabun;fontSource=https%3A%2F%2Ffonts.googleapis.com%2Fcss%3Ffamily%3DSarabun;" parent="WIyWlLk6GJQsqaUBKTNV-1" vertex="1">
          <mxGeometry x="-720" y="20" width="640" height="290" as="geometry" />
        </mxCell>
        <mxCell id="M7CGMbNuYNeq0SnUNNgH-2" value="&lt;font data-font-src=&quot;https://fonts.googleapis.com/css?family=Sarabun&quot; face=&quot;Sarabun&quot;&gt;เริ่มต้น&lt;/font&gt;" style="ellipse;whiteSpace=wrap;html=1;" parent="M7CGMbNuYNeq0SnUNNgH-6" vertex="1">
          <mxGeometry x="20" y="40" width="130" height="30" as="geometry" />
        </mxCell>
        <mxCell id="M7CGMbNuYNeq0SnUNNgH-5" value="" style="endArrow=classic;html=1;rounded=0;" parent="M7CGMbNuYNeq0SnUNNgH-6" edge="1">
          <mxGeometry width="50" height="50" relative="1" as="geometry">
            <mxPoint x="84.5" y="70" as="sourcePoint" />
            <mxPoint x="84.5" y="120" as="targetPoint" />
          </mxGeometry>
        </mxCell>
        <mxCell id="M7CGMbNuYNeq0SnUNNgH-3" value="&lt;font face=&quot;Sarabun&quot;&gt;สิ้นสุด&lt;/font&gt;" style="ellipse;whiteSpace=wrap;html=1;" parent="M7CGMbNuYNeq0SnUNNgH-6" vertex="1">
          <mxGeometry x="150" y="90" width="130" height="30" as="geometry" />
        </mxCell>
        <mxCell id="M7CGMbNuYNeq0SnUNNgH-4" value="" style="endArrow=classic;html=1;rounded=0;" parent="M7CGMbNuYNeq0SnUNNgH-6" edge="1">
          <mxGeometry width="50" height="50" relative="1" as="geometry">
            <mxPoint x="214.5" y="40" as="sourcePoint" />
            <mxPoint x="214.5" y="90" as="targetPoint" />
          </mxGeometry>
        </mxCell>
        <mxCell id="mvioNwK95yMqdUQ73LqQ-0" value="กระบวนการ" style="rounded=0;whiteSpace=wrap;html=1;fontFamily=Sarabun;fontSource=https%3A%2F%2Ffonts.googleapis.com%2Fcss%3Ffamily%3DSarabun;" parent="M7CGMbNuYNeq0SnUNNgH-6" vertex="1">
          <mxGeometry x="320" y="70" width="120" height="30" as="geometry" />
        </mxCell>
        <mxCell id="mvioNwK95yMqdUQ73LqQ-1" value="" style="endArrow=classic;html=1;rounded=0;" parent="M7CGMbNuYNeq0SnUNNgH-6" edge="1">
          <mxGeometry width="50" height="50" relative="1" as="geometry">
            <mxPoint x="379" y="40" as="sourcePoint" />
            <mxPoint x="379.5" y="70" as="targetPoint" />
          </mxGeometry>
        </mxCell>
        <mxCell id="mvioNwK95yMqdUQ73LqQ-2" value="" style="endArrow=classic;html=1;rounded=0;" parent="M7CGMbNuYNeq0SnUNNgH-6" edge="1">
          <mxGeometry width="50" height="50" relative="1" as="geometry">
            <mxPoint x="379.75" y="100" as="sourcePoint" />
            <mxPoint x="380.25" y="130" as="targetPoint" />
          </mxGeometry>
        </mxCell>
        <mxCell id="mvioNwK95yMqdUQ73LqQ-3" value="ประโยคเงื่อนไข" style="rhombus;whiteSpace=wrap;html=1;fontFamily=Sarabun;fontSource=https%3A%2F%2Ffonts.googleapis.com%2Fcss%3Ffamily%3DSarabun;" parent="M7CGMbNuYNeq0SnUNNgH-6" vertex="1">
          <mxGeometry x="490" y="60" width="100" height="60" as="geometry" />
        </mxCell>
        <mxCell id="mvioNwK95yMqdUQ73LqQ-4" value="" style="endArrow=classic;html=1;rounded=0;" parent="M7CGMbNuYNeq0SnUNNgH-6" edge="1">
          <mxGeometry width="50" height="50" relative="1" as="geometry">
            <mxPoint x="539.71" y="30" as="sourcePoint" />
            <mxPoint x="540.21" y="60" as="targetPoint" />
          </mxGeometry>
        </mxCell>
        <mxCell id="mvioNwK95yMqdUQ73LqQ-5" value="" style="endArrow=classic;html=1;rounded=0;" parent="M7CGMbNuYNeq0SnUNNgH-6" edge="1">
          <mxGeometry width="50" height="50" relative="1" as="geometry">
            <mxPoint x="539.71" y="120" as="sourcePoint" />
            <mxPoint x="540" y="175" as="targetPoint" />
          </mxGeometry>
        </mxCell>
        <mxCell id="mvioNwK95yMqdUQ73LqQ-7" value="จริง" style="edgeLabel;html=1;align=center;verticalAlign=middle;resizable=0;points=[];fontFamily=Sarabun;fontSource=https%3A%2F%2Ffonts.googleapis.com%2Fcss%3Ffamily%3DSarabun;" parent="mvioNwK95yMqdUQ73LqQ-5" vertex="1" connectable="0">
          <mxGeometry x="-0.4142" y="-1" relative="1" as="geometry">
            <mxPoint as="offset" />
          </mxGeometry>
        </mxCell>
        <mxCell id="mvioNwK95yMqdUQ73LqQ-6" value="" style="endArrow=classic;html=1;rounded=0;exitX=1;exitY=0.5;exitDx=0;exitDy=0;" parent="M7CGMbNuYNeq0SnUNNgH-6" source="mvioNwK95yMqdUQ73LqQ-3" edge="1">
          <mxGeometry width="50" height="50" relative="1" as="geometry">
            <mxPoint x="620" y="95" as="sourcePoint" />
            <mxPoint x="610" y="175" as="targetPoint" />
            <Array as="points">
              <mxPoint x="610" y="90" />
            </Array>
          </mxGeometry>
        </mxCell>
        <mxCell id="mvioNwK95yMqdUQ73LqQ-8" value="&lt;font data-font-src=&quot;https://fonts.googleapis.com/css?family=Sarabun&quot; face=&quot;Sarabun&quot;&gt;เท็จ&lt;/font&gt;" style="edgeLabel;html=1;align=center;verticalAlign=middle;resizable=0;points=[];" parent="mvioNwK95yMqdUQ73LqQ-6" vertex="1" connectable="0">
          <mxGeometry x="-0.0019" y="-2" relative="1" as="geometry">
            <mxPoint as="offset" />
          </mxGeometry>
        </mxCell>
        <mxCell id="mvioNwK95yMqdUQ73LqQ-9" value="&lt;font data-font-src=&quot;https://fonts.googleapis.com/css?family=Sarabun&quot; face=&quot;Sarabun&quot;&gt;ฟังก์ชัน/โมดูล&lt;/font&gt;" style="shape=process;whiteSpace=wrap;html=1;backgroundOutline=1;" parent="M7CGMbNuYNeq0SnUNNgH-6" vertex="1">
          <mxGeometry x="25" y="180" width="120" height="30" as="geometry" />
        </mxCell>
        <mxCell id="mvioNwK95yMqdUQ73LqQ-11" value="" style="endArrow=classic;html=1;rounded=0;" parent="M7CGMbNuYNeq0SnUNNgH-6" edge="1">
          <mxGeometry width="50" height="50" relative="1" as="geometry">
            <mxPoint x="84.70999999999998" y="150" as="sourcePoint" />
            <mxPoint x="85.20999999999998" y="180" as="targetPoint" />
          </mxGeometry>
        </mxCell>
        <mxCell id="mvioNwK95yMqdUQ73LqQ-12" value="" style="endArrow=classic;html=1;rounded=0;" parent="M7CGMbNuYNeq0SnUNNgH-6" edge="1">
          <mxGeometry width="50" height="50" relative="1" as="geometry">
            <mxPoint x="84.70999999999998" y="210" as="sourcePoint" />
            <mxPoint x="85.20999999999998" y="240" as="targetPoint" />
          </mxGeometry>
        </mxCell>
        <mxCell id="mvioNwK95yMqdUQ73LqQ-13" value="" style="strokeWidth=2;html=1;shape=mxgraph.flowchart.start_2;whiteSpace=wrap;" parent="M7CGMbNuYNeq0SnUNNgH-6" vertex="1">
          <mxGeometry x="205" y="185" width="20" height="20" as="geometry" />
        </mxCell>
        <mxCell id="mvioNwK95yMqdUQ73LqQ-16" value="" style="endArrow=classic;html=1;rounded=0;" parent="M7CGMbNuYNeq0SnUNNgH-6" edge="1">
          <mxGeometry width="50" height="50" relative="1" as="geometry">
            <mxPoint x="214.70999999999998" y="155" as="sourcePoint" />
            <mxPoint x="215.20999999999998" y="185" as="targetPoint" />
          </mxGeometry>
        </mxCell>
        <mxCell id="mvioNwK95yMqdUQ73LqQ-17" value="" style="endArrow=classic;html=1;rounded=0;entryX=0;entryY=0.5;entryDx=0;entryDy=0;entryPerimeter=0;" parent="M7CGMbNuYNeq0SnUNNgH-6" target="mvioNwK95yMqdUQ73LqQ-13" edge="1">
          <mxGeometry width="50" height="50" relative="1" as="geometry">
            <mxPoint x="189.99999999999997" y="155" as="sourcePoint" />
            <mxPoint x="190.49999999999997" y="185" as="targetPoint" />
            <Array as="points">
              <mxPoint x="190" y="180" />
            </Array>
          </mxGeometry>
        </mxCell>
        <mxCell id="mvioNwK95yMqdUQ73LqQ-18" value="" style="endArrow=classic;html=1;rounded=0;entryX=1;entryY=0.5;entryDx=0;entryDy=0;entryPerimeter=0;" parent="M7CGMbNuYNeq0SnUNNgH-6" target="mvioNwK95yMqdUQ73LqQ-13" edge="1">
          <mxGeometry width="50" height="50" relative="1" as="geometry">
            <mxPoint x="239.99999999999997" y="155" as="sourcePoint" />
            <mxPoint x="240.49999999999997" y="185" as="targetPoint" />
            <Array as="points">
              <mxPoint x="240" y="180" />
            </Array>
          </mxGeometry>
        </mxCell>
        <mxCell id="mvioNwK95yMqdUQ73LqQ-19" value="" style="endArrow=classic;html=1;rounded=0;" parent="M7CGMbNuYNeq0SnUNNgH-6" edge="1">
          <mxGeometry width="50" height="50" relative="1" as="geometry">
            <mxPoint x="214.70999999999998" y="205" as="sourcePoint" />
            <mxPoint x="215.20999999999998" y="235" as="targetPoint" />
          </mxGeometry>
        </mxCell>
        <mxCell id="mvioNwK95yMqdUQ73LqQ-20" value="&lt;font data-font-src=&quot;https://fonts.googleapis.com/css?family=Sarabun&quot; face=&quot;Sarabun&quot;&gt;ตัวเชื่อม&lt;/font&gt;" style="text;html=1;align=center;verticalAlign=middle;resizable=0;points=[];autosize=1;strokeColor=none;fillColor=none;" parent="M7CGMbNuYNeq0SnUNNgH-6" vertex="1">
          <mxGeometry x="220" y="190" width="60" height="30" as="geometry" />
        </mxCell>
        <mxCell id="mvioNwK95yMqdUQ73LqQ-25" value="" style="endArrow=classic;html=1;rounded=0;" parent="M7CGMbNuYNeq0SnUNNgH-6" edge="1">
          <mxGeometry width="50" height="50" relative="1" as="geometry">
            <mxPoint x="353.71" y="165" as="sourcePoint" />
            <mxPoint x="354.21" y="195" as="targetPoint" />
          </mxGeometry>
        </mxCell>
        <mxCell id="mvioNwK95yMqdUQ73LqQ-21" value="" style="verticalLabelPosition=bottom;verticalAlign=top;html=1;shape=offPageConnector;rounded=0;size=0.5;" parent="M7CGMbNuYNeq0SnUNNgH-6" vertex="1">
          <mxGeometry x="339" y="195" width="30" height="30" as="geometry" />
        </mxCell>
        <mxCell id="mvioNwK95yMqdUQ73LqQ-26" value="" style="endArrow=classic;html=1;rounded=0;" parent="M7CGMbNuYNeq0SnUNNgH-6" edge="1">
          <mxGeometry width="50" height="50" relative="1" as="geometry">
            <mxPoint x="405.71" y="195" as="sourcePoint" />
            <mxPoint x="406.21" y="225" as="targetPoint" />
          </mxGeometry>
        </mxCell>
        <mxCell id="mvioNwK95yMqdUQ73LqQ-27" value="" style="verticalLabelPosition=bottom;verticalAlign=top;html=1;shape=offPageConnector;rounded=0;size=0.5;" parent="M7CGMbNuYNeq0SnUNNgH-6" vertex="1">
          <mxGeometry x="391" y="165" width="30" height="30" as="geometry" />
        </mxCell>
        <mxCell id="mvioNwK95yMqdUQ73LqQ-28" value="หน้าต่อไป" style="text;html=1;align=center;verticalAlign=middle;resizable=0;points=[];autosize=1;strokeColor=none;fillColor=none;fontFamily=Sarabun;fontSource=https%3A%2F%2Ffonts.googleapis.com%2Fcss%3Ffamily%3DSarabun;" parent="M7CGMbNuYNeq0SnUNNgH-6" vertex="1">
          <mxGeometry x="345" y="220" width="70" height="30" as="geometry" />
        </mxCell>
        <mxCell id="mvioNwK95yMqdUQ73LqQ-29" value="ก" style="text;html=1;align=center;verticalAlign=middle;resizable=0;points=[];autosize=1;strokeColor=none;fillColor=none;fontFamily=Sarabun;fontSource=https%3A%2F%2Ffonts.googleapis.com%2Fcss%3Ffamily%3DSarabun;" parent="M7CGMbNuYNeq0SnUNNgH-6" vertex="1">
          <mxGeometry x="339" y="190" width="30" height="30" as="geometry" />
        </mxCell>
        <mxCell id="mvioNwK95yMqdUQ73LqQ-30" value="ก" style="text;html=1;align=center;verticalAlign=middle;resizable=0;points=[];autosize=1;strokeColor=none;fillColor=none;fontFamily=Sarabun;fontSource=https%3A%2F%2Ffonts.googleapis.com%2Fcss%3Ffamily%3DSarabun;" parent="M7CGMbNuYNeq0SnUNNgH-6" vertex="1">
          <mxGeometry x="391" y="160" width="30" height="30" as="geometry" />
        </mxCell>
        <mxCell id="mvioNwK95yMqdUQ73LqQ-32" value="แสดงผล/รับค่า" style="shape=parallelogram;perimeter=parallelogramPerimeter;whiteSpace=wrap;html=1;fixedSize=1;fontFamily=Sarabun;fontSource=https%3A%2F%2Ffonts.googleapis.com%2Fcss%3Ffamily%3DSarabun;" parent="M7CGMbNuYNeq0SnUNNgH-6" vertex="1">
          <mxGeometry x="450" y="210" width="120" height="30" as="geometry" />
        </mxCell>
        <mxCell id="mvioNwK95yMqdUQ73LqQ-33" value="" style="endArrow=classic;html=1;rounded=0;" parent="M7CGMbNuYNeq0SnUNNgH-6" edge="1">
          <mxGeometry width="50" height="50" relative="1" as="geometry">
            <mxPoint x="509.71" y="180" as="sourcePoint" />
            <mxPoint x="510.21" y="210" as="targetPoint" />
          </mxGeometry>
        </mxCell>
        <mxCell id="mvioNwK95yMqdUQ73LqQ-34" value="" style="endArrow=classic;html=1;rounded=0;" parent="M7CGMbNuYNeq0SnUNNgH-6" edge="1">
          <mxGeometry width="50" height="50" relative="1" as="geometry">
            <mxPoint x="509.71" y="240" as="sourcePoint" />
            <mxPoint x="510.21" y="270" as="targetPoint" />
          </mxGeometry>
        </mxCell>
        <mxCell id="mvioNwK95yMqdUQ73LqQ-36" value="แก้ไขโจทย์ปัญหา" style="swimlane;fontFamily=Sarabun;fontSource=https%3A%2F%2Ffonts.googleapis.com%2Fcss%3Ffamily%3DSarabun;fontStyle=0" parent="WIyWlLk6GJQsqaUBKTNV-1" vertex="1">
          <mxGeometry x="-720" y="610" width="2300" height="2840" as="geometry" />
        </mxCell>
        <mxCell id="mvioNwK95yMqdUQ73LqQ-35" value="&lt;font data-font-src=&quot;https://fonts.googleapis.com/css?family=Sarabun&quot; face=&quot;Sarabun&quot;&gt;เริ่มต้น&lt;/font&gt;" style="ellipse;whiteSpace=wrap;html=1;" parent="mvioNwK95yMqdUQ73LqQ-36" vertex="1">
          <mxGeometry x="255" y="30" width="130" height="30" as="geometry" />
        </mxCell>
        <mxCell id="zS9Ld9DrV2a43Eu4lv0S-73" value="" style="edgeStyle=orthogonalEdgeStyle;rounded=0;orthogonalLoop=1;jettySize=auto;html=1;" edge="1" parent="mvioNwK95yMqdUQ73LqQ-36" source="zS9Ld9DrV2a43Eu4lv0S-244" target="zS9Ld9DrV2a43Eu4lv0S-72">
          <mxGeometry relative="1" as="geometry">
            <mxPoint x="-400" y="660" as="sourcePoint" />
            <mxPoint x="-400" y="930" as="targetPoint" />
          </mxGeometry>
        </mxCell>
        <mxCell id="zS9Ld9DrV2a43Eu4lv0S-242" value="int numB = 0&lt;div&gt;int No = 0&lt;/div&gt;&lt;div&gt;int maun_1 = 0&lt;/div&gt;&lt;div&gt;int maun_2 = 0&lt;/div&gt;&lt;div&gt;int maun_3 = 0&lt;/div&gt;&lt;div&gt;int maun_4 = 0&lt;/div&gt;&lt;div&gt;int maun_5 = 0&lt;/div&gt;&lt;div&gt;int maun_6 = 0&lt;/div&gt;&lt;div&gt;int maun_7 = 0&lt;/div&gt;&lt;div&gt;conf = False&lt;/div&gt;" style="whiteSpace=wrap;html=1;" vertex="1" parent="mvioNwK95yMqdUQ73LqQ-36">
          <mxGeometry x="260" y="80" width="120" height="180" as="geometry" />
        </mxCell>
        <mxCell id="zS9Ld9DrV2a43Eu4lv0S-3" value="" style="edgeStyle=orthogonalEdgeStyle;rounded=0;orthogonalLoop=1;jettySize=auto;html=1;" edge="1" parent="mvioNwK95yMqdUQ73LqQ-36" source="zS9Ld9DrV2a43Eu4lv0S-72" target="zS9Ld9DrV2a43Eu4lv0S-1">
          <mxGeometry relative="1" as="geometry" />
        </mxCell>
        <mxCell id="zS9Ld9DrV2a43Eu4lv0S-174" value="" style="edgeStyle=orthogonalEdgeStyle;rounded=0;orthogonalLoop=1;jettySize=auto;html=1;" edge="1" parent="mvioNwK95yMqdUQ73LqQ-36" source="zS9Ld9DrV2a43Eu4lv0S-187" target="zS9Ld9DrV2a43Eu4lv0S-173">
          <mxGeometry relative="1" as="geometry" />
        </mxCell>
        <mxCell id="zS9Ld9DrV2a43Eu4lv0S-1" value="รับเงินที่ใส่เข้ามา" style="shape=parallelogram;perimeter=parallelogramPerimeter;whiteSpace=wrap;html=1;fixedSize=1;fontFamily=Sarabun;fontSource=https%3A%2F%2Ffonts.googleapis.com%2Fcss%3Ffamily%3DSarabun;" vertex="1" parent="mvioNwK95yMqdUQ73LqQ-36">
          <mxGeometry x="260" y="500" width="120" height="30" as="geometry" />
        </mxCell>
        <mxCell id="zS9Ld9DrV2a43Eu4lv0S-72" value="" style="strokeWidth=2;html=1;shape=mxgraph.flowchart.start_2;whiteSpace=wrap;" vertex="1" parent="mvioNwK95yMqdUQ73LqQ-36">
          <mxGeometry x="310" y="460" width="20" height="20" as="geometry" />
        </mxCell>
        <mxCell id="zS9Ld9DrV2a43Eu4lv0S-74" style="edgeStyle=orthogonalEdgeStyle;rounded=0;orthogonalLoop=1;jettySize=auto;html=1;exitX=0;exitY=0.5;exitDx=0;exitDy=0;entryX=0;entryY=0.5;entryDx=0;entryDy=0;entryPerimeter=0;" edge="1" parent="mvioNwK95yMqdUQ73LqQ-36" source="zS9Ld9DrV2a43Eu4lv0S-70" target="zS9Ld9DrV2a43Eu4lv0S-72">
          <mxGeometry relative="1" as="geometry">
            <Array as="points">
              <mxPoint x="60" y="1964" />
              <mxPoint x="60" y="470" />
            </Array>
          </mxGeometry>
        </mxCell>
        <mxCell id="mvioNwK95yMqdUQ73LqQ-69" value="&lt;font face=&quot;Sarabun&quot;&gt;สิ้นสุด&lt;/font&gt;" style="ellipse;whiteSpace=wrap;html=1;" parent="mvioNwK95yMqdUQ73LqQ-36" vertex="1">
          <mxGeometry x="265" y="2760" width="130" height="30" as="geometry" />
        </mxCell>
        <mxCell id="zS9Ld9DrV2a43Eu4lv0S-11" value="" style="edgeStyle=orthogonalEdgeStyle;rounded=0;orthogonalLoop=1;jettySize=auto;html=1;" edge="1" parent="mvioNwK95yMqdUQ73LqQ-36" source="zS9Ld9DrV2a43Eu4lv0S-48" target="zS9Ld9DrV2a43Eu4lv0S-10">
          <mxGeometry relative="1" as="geometry" />
        </mxCell>
        <mxCell id="zS9Ld9DrV2a43Eu4lv0S-13" value="" style="edgeStyle=orthogonalEdgeStyle;rounded=0;orthogonalLoop=1;jettySize=auto;html=1;" edge="1" parent="mvioNwK95yMqdUQ73LqQ-36" source="zS9Ld9DrV2a43Eu4lv0S-10" target="zS9Ld9DrV2a43Eu4lv0S-12">
          <mxGeometry relative="1" as="geometry" />
        </mxCell>
        <mxCell id="zS9Ld9DrV2a43Eu4lv0S-10" value="กดเลือกเมนู" style="shape=parallelogram;perimeter=parallelogramPerimeter;whiteSpace=wrap;html=1;fixedSize=1;" vertex="1" parent="mvioNwK95yMqdUQ73LqQ-36">
          <mxGeometry x="270" y="930" width="120" height="30" as="geometry" />
        </mxCell>
        <mxCell id="zS9Ld9DrV2a43Eu4lv0S-15" value="" style="edgeStyle=orthogonalEdgeStyle;rounded=0;orthogonalLoop=1;jettySize=auto;html=1;" edge="1" parent="mvioNwK95yMqdUQ73LqQ-36" source="zS9Ld9DrV2a43Eu4lv0S-12" target="zS9Ld9DrV2a43Eu4lv0S-14">
          <mxGeometry relative="1" as="geometry" />
        </mxCell>
        <mxCell id="zS9Ld9DrV2a43Eu4lv0S-12" value="No = เลือกเมนู" style="whiteSpace=wrap;html=1;" vertex="1" parent="mvioNwK95yMqdUQ73LqQ-36">
          <mxGeometry x="270" y="980" width="120" height="60" as="geometry" />
        </mxCell>
        <mxCell id="zS9Ld9DrV2a43Eu4lv0S-17" value="" style="edgeStyle=orthogonalEdgeStyle;rounded=0;orthogonalLoop=1;jettySize=auto;html=1;" edge="1" parent="mvioNwK95yMqdUQ73LqQ-36" source="zS9Ld9DrV2a43Eu4lv0S-14" target="zS9Ld9DrV2a43Eu4lv0S-16">
          <mxGeometry relative="1" as="geometry" />
        </mxCell>
        <mxCell id="zS9Ld9DrV2a43Eu4lv0S-31" value="" style="edgeStyle=orthogonalEdgeStyle;rounded=0;orthogonalLoop=1;jettySize=auto;html=1;" edge="1" parent="mvioNwK95yMqdUQ73LqQ-36" source="zS9Ld9DrV2a43Eu4lv0S-14" target="zS9Ld9DrV2a43Eu4lv0S-30">
          <mxGeometry relative="1" as="geometry" />
        </mxCell>
        <mxCell id="zS9Ld9DrV2a43Eu4lv0S-14" value="No == 0&amp;nbsp;" style="rhombus;whiteSpace=wrap;html=1;" vertex="1" parent="mvioNwK95yMqdUQ73LqQ-36">
          <mxGeometry x="265" y="1060" width="130" height="80" as="geometry" />
        </mxCell>
        <mxCell id="zS9Ld9DrV2a43Eu4lv0S-19" value="" style="edgeStyle=orthogonalEdgeStyle;rounded=0;orthogonalLoop=1;jettySize=auto;html=1;" edge="1" parent="mvioNwK95yMqdUQ73LqQ-36" source="zS9Ld9DrV2a43Eu4lv0S-16" target="zS9Ld9DrV2a43Eu4lv0S-18">
          <mxGeometry relative="1" as="geometry" />
        </mxCell>
        <mxCell id="zS9Ld9DrV2a43Eu4lv0S-33" value="" style="edgeStyle=orthogonalEdgeStyle;rounded=0;orthogonalLoop=1;jettySize=auto;html=1;" edge="1" parent="mvioNwK95yMqdUQ73LqQ-36" source="zS9Ld9DrV2a43Eu4lv0S-16" target="zS9Ld9DrV2a43Eu4lv0S-32">
          <mxGeometry relative="1" as="geometry" />
        </mxCell>
        <mxCell id="zS9Ld9DrV2a43Eu4lv0S-16" value="No == 1" style="rhombus;whiteSpace=wrap;html=1;" vertex="1" parent="mvioNwK95yMqdUQ73LqQ-36">
          <mxGeometry x="450" y="1110" width="130" height="80" as="geometry" />
        </mxCell>
        <mxCell id="zS9Ld9DrV2a43Eu4lv0S-21" value="" style="edgeStyle=orthogonalEdgeStyle;rounded=0;orthogonalLoop=1;jettySize=auto;html=1;" edge="1" parent="mvioNwK95yMqdUQ73LqQ-36" source="zS9Ld9DrV2a43Eu4lv0S-18" target="zS9Ld9DrV2a43Eu4lv0S-20">
          <mxGeometry relative="1" as="geometry" />
        </mxCell>
        <mxCell id="zS9Ld9DrV2a43Eu4lv0S-35" value="" style="edgeStyle=orthogonalEdgeStyle;rounded=0;orthogonalLoop=1;jettySize=auto;html=1;" edge="1" parent="mvioNwK95yMqdUQ73LqQ-36" source="zS9Ld9DrV2a43Eu4lv0S-18" target="zS9Ld9DrV2a43Eu4lv0S-34">
          <mxGeometry relative="1" as="geometry" />
        </mxCell>
        <mxCell id="zS9Ld9DrV2a43Eu4lv0S-18" value="No == 2" style="rhombus;whiteSpace=wrap;html=1;" vertex="1" parent="mvioNwK95yMqdUQ73LqQ-36">
          <mxGeometry x="660" y="1140" width="130" height="80" as="geometry" />
        </mxCell>
        <mxCell id="zS9Ld9DrV2a43Eu4lv0S-23" value="" style="edgeStyle=orthogonalEdgeStyle;rounded=0;orthogonalLoop=1;jettySize=auto;html=1;" edge="1" parent="mvioNwK95yMqdUQ73LqQ-36" source="zS9Ld9DrV2a43Eu4lv0S-20" target="zS9Ld9DrV2a43Eu4lv0S-22">
          <mxGeometry relative="1" as="geometry" />
        </mxCell>
        <mxCell id="zS9Ld9DrV2a43Eu4lv0S-37" value="" style="edgeStyle=orthogonalEdgeStyle;rounded=0;orthogonalLoop=1;jettySize=auto;html=1;" edge="1" parent="mvioNwK95yMqdUQ73LqQ-36" source="zS9Ld9DrV2a43Eu4lv0S-20" target="zS9Ld9DrV2a43Eu4lv0S-36">
          <mxGeometry relative="1" as="geometry" />
        </mxCell>
        <mxCell id="zS9Ld9DrV2a43Eu4lv0S-20" value="No == 3" style="rhombus;whiteSpace=wrap;html=1;" vertex="1" parent="mvioNwK95yMqdUQ73LqQ-36">
          <mxGeometry x="870" y="1170" width="130" height="80" as="geometry" />
        </mxCell>
        <mxCell id="zS9Ld9DrV2a43Eu4lv0S-25" value="" style="edgeStyle=orthogonalEdgeStyle;rounded=0;orthogonalLoop=1;jettySize=auto;html=1;" edge="1" parent="mvioNwK95yMqdUQ73LqQ-36" source="zS9Ld9DrV2a43Eu4lv0S-22" target="zS9Ld9DrV2a43Eu4lv0S-24">
          <mxGeometry relative="1" as="geometry" />
        </mxCell>
        <mxCell id="zS9Ld9DrV2a43Eu4lv0S-39" value="" style="edgeStyle=orthogonalEdgeStyle;rounded=0;orthogonalLoop=1;jettySize=auto;html=1;" edge="1" parent="mvioNwK95yMqdUQ73LqQ-36" source="zS9Ld9DrV2a43Eu4lv0S-22" target="zS9Ld9DrV2a43Eu4lv0S-38">
          <mxGeometry relative="1" as="geometry" />
        </mxCell>
        <mxCell id="zS9Ld9DrV2a43Eu4lv0S-22" value="No == 4" style="rhombus;whiteSpace=wrap;html=1;" vertex="1" parent="mvioNwK95yMqdUQ73LqQ-36">
          <mxGeometry x="1079" y="1200" width="130" height="80" as="geometry" />
        </mxCell>
        <mxCell id="zS9Ld9DrV2a43Eu4lv0S-27" value="" style="edgeStyle=orthogonalEdgeStyle;rounded=0;orthogonalLoop=1;jettySize=auto;html=1;" edge="1" parent="mvioNwK95yMqdUQ73LqQ-36" source="zS9Ld9DrV2a43Eu4lv0S-24" target="zS9Ld9DrV2a43Eu4lv0S-26">
          <mxGeometry relative="1" as="geometry" />
        </mxCell>
        <mxCell id="zS9Ld9DrV2a43Eu4lv0S-41" value="" style="edgeStyle=orthogonalEdgeStyle;rounded=0;orthogonalLoop=1;jettySize=auto;html=1;" edge="1" parent="mvioNwK95yMqdUQ73LqQ-36" source="zS9Ld9DrV2a43Eu4lv0S-24" target="zS9Ld9DrV2a43Eu4lv0S-40">
          <mxGeometry relative="1" as="geometry" />
        </mxCell>
        <mxCell id="zS9Ld9DrV2a43Eu4lv0S-24" value="No == 5" style="rhombus;whiteSpace=wrap;html=1;" vertex="1" parent="mvioNwK95yMqdUQ73LqQ-36">
          <mxGeometry x="1289" y="1230" width="130" height="80" as="geometry" />
        </mxCell>
        <mxCell id="zS9Ld9DrV2a43Eu4lv0S-29" value="" style="edgeStyle=orthogonalEdgeStyle;rounded=0;orthogonalLoop=1;jettySize=auto;html=1;" edge="1" parent="mvioNwK95yMqdUQ73LqQ-36" source="zS9Ld9DrV2a43Eu4lv0S-26" target="zS9Ld9DrV2a43Eu4lv0S-28">
          <mxGeometry relative="1" as="geometry" />
        </mxCell>
        <mxCell id="zS9Ld9DrV2a43Eu4lv0S-43" value="" style="edgeStyle=orthogonalEdgeStyle;rounded=0;orthogonalLoop=1;jettySize=auto;html=1;" edge="1" parent="mvioNwK95yMqdUQ73LqQ-36" source="zS9Ld9DrV2a43Eu4lv0S-26" target="zS9Ld9DrV2a43Eu4lv0S-42">
          <mxGeometry relative="1" as="geometry" />
        </mxCell>
        <mxCell id="zS9Ld9DrV2a43Eu4lv0S-26" value="No == 6" style="rhombus;whiteSpace=wrap;html=1;" vertex="1" parent="mvioNwK95yMqdUQ73LqQ-36">
          <mxGeometry x="1499" y="1260" width="130" height="80" as="geometry" />
        </mxCell>
        <mxCell id="zS9Ld9DrV2a43Eu4lv0S-45" value="" style="edgeStyle=orthogonalEdgeStyle;rounded=0;orthogonalLoop=1;jettySize=auto;html=1;" edge="1" parent="mvioNwK95yMqdUQ73LqQ-36" source="zS9Ld9DrV2a43Eu4lv0S-28" target="zS9Ld9DrV2a43Eu4lv0S-44">
          <mxGeometry relative="1" as="geometry" />
        </mxCell>
        <mxCell id="zS9Ld9DrV2a43Eu4lv0S-28" value="No == 7" style="rhombus;whiteSpace=wrap;html=1;" vertex="1" parent="mvioNwK95yMqdUQ73LqQ-36">
          <mxGeometry x="1709" y="1290" width="130" height="80" as="geometry" />
        </mxCell>
        <mxCell id="zS9Ld9DrV2a43Eu4lv0S-47" value="" style="edgeStyle=orthogonalEdgeStyle;rounded=0;orthogonalLoop=1;jettySize=auto;html=1;" edge="1" parent="mvioNwK95yMqdUQ73LqQ-36" source="zS9Ld9DrV2a43Eu4lv0S-66" target="zS9Ld9DrV2a43Eu4lv0S-46">
          <mxGeometry relative="1" as="geometry" />
        </mxCell>
        <mxCell id="zS9Ld9DrV2a43Eu4lv0S-30" value="maun_1 += 1&lt;div&gt;sum = sum + 10&lt;/div&gt;" style="whiteSpace=wrap;html=1;" vertex="1" parent="mvioNwK95yMqdUQ73LqQ-36">
          <mxGeometry x="270" y="1230" width="120" height="60" as="geometry" />
        </mxCell>
        <mxCell id="zS9Ld9DrV2a43Eu4lv0S-32" value="maun_2 += 1&lt;div&gt;sum = sum + 12&lt;/div&gt;" style="whiteSpace=wrap;html=1;" vertex="1" parent="mvioNwK95yMqdUQ73LqQ-36">
          <mxGeometry x="455" y="1280" width="120" height="60" as="geometry" />
        </mxCell>
        <mxCell id="zS9Ld9DrV2a43Eu4lv0S-34" value="maun_3 += 1&lt;div&gt;sum = sum + 30&lt;/div&gt;" style="whiteSpace=wrap;html=1;" vertex="1" parent="mvioNwK95yMqdUQ73LqQ-36">
          <mxGeometry x="665" y="1310" width="120" height="60" as="geometry" />
        </mxCell>
        <mxCell id="zS9Ld9DrV2a43Eu4lv0S-36" value="maun_4 += 1&lt;div&gt;sum = sum + 35&lt;/div&gt;" style="whiteSpace=wrap;html=1;" vertex="1" parent="mvioNwK95yMqdUQ73LqQ-36">
          <mxGeometry x="875" y="1340" width="120" height="60" as="geometry" />
        </mxCell>
        <mxCell id="zS9Ld9DrV2a43Eu4lv0S-38" value="maun_5 += 1&lt;div&gt;sum = sum + 13&lt;/div&gt;" style="whiteSpace=wrap;html=1;" vertex="1" parent="mvioNwK95yMqdUQ73LqQ-36">
          <mxGeometry x="1084" y="1370" width="120" height="60" as="geometry" />
        </mxCell>
        <mxCell id="zS9Ld9DrV2a43Eu4lv0S-40" value="maun_6 += 1&lt;div&gt;sum = sum + 20&lt;/div&gt;" style="whiteSpace=wrap;html=1;" vertex="1" parent="mvioNwK95yMqdUQ73LqQ-36">
          <mxGeometry x="1294" y="1400" width="120" height="60" as="geometry" />
        </mxCell>
        <mxCell id="zS9Ld9DrV2a43Eu4lv0S-42" value="maun_7 += 1&lt;div&gt;sum = sum + 15&lt;/div&gt;" style="whiteSpace=wrap;html=1;" vertex="1" parent="mvioNwK95yMqdUQ73LqQ-36">
          <mxGeometry x="1504" y="1430" width="120" height="60" as="geometry" />
        </mxCell>
        <mxCell id="zS9Ld9DrV2a43Eu4lv0S-44" value="conf = True" style="whiteSpace=wrap;html=1;" vertex="1" parent="mvioNwK95yMqdUQ73LqQ-36">
          <mxGeometry x="1714" y="1460" width="120" height="60" as="geometry" />
        </mxCell>
        <mxCell id="zS9Ld9DrV2a43Eu4lv0S-50" style="edgeStyle=orthogonalEdgeStyle;rounded=0;orthogonalLoop=1;jettySize=auto;html=1;exitX=0;exitY=0.5;exitDx=0;exitDy=0;entryX=0;entryY=0.5;entryDx=0;entryDy=0;entryPerimeter=0;" edge="1" parent="mvioNwK95yMqdUQ73LqQ-36" source="zS9Ld9DrV2a43Eu4lv0S-46" target="zS9Ld9DrV2a43Eu4lv0S-48">
          <mxGeometry relative="1" as="geometry">
            <Array as="points">
              <mxPoint x="130" y="1804" />
              <mxPoint x="130" y="890" />
            </Array>
          </mxGeometry>
        </mxCell>
        <mxCell id="zS9Ld9DrV2a43Eu4lv0S-71" value="" style="edgeStyle=orthogonalEdgeStyle;rounded=0;orthogonalLoop=1;jettySize=auto;html=1;" edge="1" parent="mvioNwK95yMqdUQ73LqQ-36" source="zS9Ld9DrV2a43Eu4lv0S-46" target="zS9Ld9DrV2a43Eu4lv0S-70">
          <mxGeometry relative="1" as="geometry" />
        </mxCell>
        <mxCell id="zS9Ld9DrV2a43Eu4lv0S-46" value="if conf == True" style="rhombus;whiteSpace=wrap;html=1;" vertex="1" parent="mvioNwK95yMqdUQ73LqQ-36">
          <mxGeometry x="265" y="1764" width="130" height="80" as="geometry" />
        </mxCell>
        <mxCell id="zS9Ld9DrV2a43Eu4lv0S-48" value="" style="strokeWidth=2;html=1;shape=mxgraph.flowchart.start_2;whiteSpace=wrap;" vertex="1" parent="mvioNwK95yMqdUQ73LqQ-36">
          <mxGeometry x="320" y="880" width="20" height="20" as="geometry" />
        </mxCell>
        <mxCell id="zS9Ld9DrV2a43Eu4lv0S-51" value="" style="strokeWidth=2;html=1;shape=mxgraph.flowchart.start_2;whiteSpace=wrap;" vertex="1" parent="mvioNwK95yMqdUQ73LqQ-36">
          <mxGeometry x="320" y="1580" width="20" height="20" as="geometry" />
        </mxCell>
        <mxCell id="zS9Ld9DrV2a43Eu4lv0S-52" value="" style="edgeStyle=orthogonalEdgeStyle;rounded=0;orthogonalLoop=1;jettySize=auto;html=1;" edge="1" parent="mvioNwK95yMqdUQ73LqQ-36" source="zS9Ld9DrV2a43Eu4lv0S-30" target="zS9Ld9DrV2a43Eu4lv0S-51">
          <mxGeometry relative="1" as="geometry">
            <mxPoint x="-390" y="1930" as="sourcePoint" />
            <mxPoint x="-390" y="2270" as="targetPoint" />
          </mxGeometry>
        </mxCell>
        <mxCell id="zS9Ld9DrV2a43Eu4lv0S-53" style="edgeStyle=orthogonalEdgeStyle;rounded=0;orthogonalLoop=1;jettySize=auto;html=1;exitX=0.5;exitY=1;exitDx=0;exitDy=0;entryX=1;entryY=0.5;entryDx=0;entryDy=0;entryPerimeter=0;" edge="1" parent="mvioNwK95yMqdUQ73LqQ-36" source="zS9Ld9DrV2a43Eu4lv0S-32" target="zS9Ld9DrV2a43Eu4lv0S-51">
          <mxGeometry relative="1" as="geometry" />
        </mxCell>
        <mxCell id="zS9Ld9DrV2a43Eu4lv0S-54" style="edgeStyle=orthogonalEdgeStyle;rounded=0;orthogonalLoop=1;jettySize=auto;html=1;exitX=0.5;exitY=1;exitDx=0;exitDy=0;entryX=1;entryY=0.5;entryDx=0;entryDy=0;entryPerimeter=0;" edge="1" parent="mvioNwK95yMqdUQ73LqQ-36" source="zS9Ld9DrV2a43Eu4lv0S-34" target="zS9Ld9DrV2a43Eu4lv0S-51">
          <mxGeometry relative="1" as="geometry" />
        </mxCell>
        <mxCell id="zS9Ld9DrV2a43Eu4lv0S-55" style="edgeStyle=orthogonalEdgeStyle;rounded=0;orthogonalLoop=1;jettySize=auto;html=1;exitX=0.5;exitY=1;exitDx=0;exitDy=0;entryX=1;entryY=0.5;entryDx=0;entryDy=0;entryPerimeter=0;" edge="1" parent="mvioNwK95yMqdUQ73LqQ-36" source="zS9Ld9DrV2a43Eu4lv0S-36" target="zS9Ld9DrV2a43Eu4lv0S-51">
          <mxGeometry relative="1" as="geometry" />
        </mxCell>
        <mxCell id="zS9Ld9DrV2a43Eu4lv0S-56" style="edgeStyle=orthogonalEdgeStyle;rounded=0;orthogonalLoop=1;jettySize=auto;html=1;exitX=0.5;exitY=1;exitDx=0;exitDy=0;entryX=1;entryY=0.5;entryDx=0;entryDy=0;entryPerimeter=0;" edge="1" parent="mvioNwK95yMqdUQ73LqQ-36" source="zS9Ld9DrV2a43Eu4lv0S-38" target="zS9Ld9DrV2a43Eu4lv0S-51">
          <mxGeometry relative="1" as="geometry" />
        </mxCell>
        <mxCell id="zS9Ld9DrV2a43Eu4lv0S-57" style="edgeStyle=orthogonalEdgeStyle;rounded=0;orthogonalLoop=1;jettySize=auto;html=1;exitX=0.5;exitY=1;exitDx=0;exitDy=0;entryX=1;entryY=0.5;entryDx=0;entryDy=0;entryPerimeter=0;" edge="1" parent="mvioNwK95yMqdUQ73LqQ-36" source="zS9Ld9DrV2a43Eu4lv0S-40" target="zS9Ld9DrV2a43Eu4lv0S-51">
          <mxGeometry relative="1" as="geometry" />
        </mxCell>
        <mxCell id="zS9Ld9DrV2a43Eu4lv0S-58" style="edgeStyle=orthogonalEdgeStyle;rounded=0;orthogonalLoop=1;jettySize=auto;html=1;exitX=0.5;exitY=1;exitDx=0;exitDy=0;entryX=1;entryY=0.5;entryDx=0;entryDy=0;entryPerimeter=0;" edge="1" parent="mvioNwK95yMqdUQ73LqQ-36" source="zS9Ld9DrV2a43Eu4lv0S-42" target="zS9Ld9DrV2a43Eu4lv0S-51">
          <mxGeometry relative="1" as="geometry" />
        </mxCell>
        <mxCell id="zS9Ld9DrV2a43Eu4lv0S-60" style="edgeStyle=orthogonalEdgeStyle;rounded=0;orthogonalLoop=1;jettySize=auto;html=1;exitX=0.5;exitY=1;exitDx=0;exitDy=0;entryX=1;entryY=0.5;entryDx=0;entryDy=0;entryPerimeter=0;" edge="1" parent="mvioNwK95yMqdUQ73LqQ-36" source="zS9Ld9DrV2a43Eu4lv0S-44" target="zS9Ld9DrV2a43Eu4lv0S-51">
          <mxGeometry relative="1" as="geometry" />
        </mxCell>
        <mxCell id="zS9Ld9DrV2a43Eu4lv0S-65" style="edgeStyle=orthogonalEdgeStyle;rounded=0;orthogonalLoop=1;jettySize=auto;html=1;exitX=1;exitY=0.5;exitDx=0;exitDy=0;entryX=1;entryY=0.5;entryDx=0;entryDy=0;entryPerimeter=0;" edge="1" parent="mvioNwK95yMqdUQ73LqQ-36" source="zS9Ld9DrV2a43Eu4lv0S-28" target="zS9Ld9DrV2a43Eu4lv0S-48">
          <mxGeometry relative="1" as="geometry" />
        </mxCell>
        <mxCell id="zS9Ld9DrV2a43Eu4lv0S-67" value="" style="edgeStyle=orthogonalEdgeStyle;rounded=0;orthogonalLoop=1;jettySize=auto;html=1;" edge="1" parent="mvioNwK95yMqdUQ73LqQ-36" source="zS9Ld9DrV2a43Eu4lv0S-51" target="zS9Ld9DrV2a43Eu4lv0S-66">
          <mxGeometry relative="1" as="geometry">
            <mxPoint x="-390" y="2240" as="sourcePoint" />
            <mxPoint x="-390" y="2404" as="targetPoint" />
          </mxGeometry>
        </mxCell>
        <mxCell id="zS9Ld9DrV2a43Eu4lv0S-66" value="แสดงจำนวนสินค้าตามรายการ&lt;div&gt;และจำนวนเงินที่ต้องจ่าย&lt;/div&gt;" style="shape=parallelogram;perimeter=parallelogramPerimeter;whiteSpace=wrap;html=1;fixedSize=1;fontFamily=Sarabun;fontSource=https%3A%2F%2Ffonts.googleapis.com%2Fcss%3Ffamily%3DSarabun;" vertex="1" parent="mvioNwK95yMqdUQ73LqQ-36">
          <mxGeometry x="240" y="1630" width="180" height="80" as="geometry" />
        </mxCell>
        <mxCell id="zS9Ld9DrV2a43Eu4lv0S-76" value="" style="edgeStyle=orthogonalEdgeStyle;rounded=0;orthogonalLoop=1;jettySize=auto;html=1;" edge="1" parent="mvioNwK95yMqdUQ73LqQ-36" source="zS9Ld9DrV2a43Eu4lv0S-70" target="zS9Ld9DrV2a43Eu4lv0S-75">
          <mxGeometry relative="1" as="geometry" />
        </mxCell>
        <mxCell id="zS9Ld9DrV2a43Eu4lv0S-70" value="if sum &amp;gt; num" style="rhombus;whiteSpace=wrap;html=1;" vertex="1" parent="mvioNwK95yMqdUQ73LqQ-36">
          <mxGeometry x="265" y="1924" width="130" height="80" as="geometry" />
        </mxCell>
        <mxCell id="zS9Ld9DrV2a43Eu4lv0S-78" value="" style="edgeStyle=orthogonalEdgeStyle;rounded=0;orthogonalLoop=1;jettySize=auto;html=1;" edge="1" parent="mvioNwK95yMqdUQ73LqQ-36" source="zS9Ld9DrV2a43Eu4lv0S-81" target="zS9Ld9DrV2a43Eu4lv0S-77">
          <mxGeometry relative="1" as="geometry" />
        </mxCell>
        <mxCell id="zS9Ld9DrV2a43Eu4lv0S-75" value="pair = num - sum" style="whiteSpace=wrap;html=1;" vertex="1" parent="mvioNwK95yMqdUQ73LqQ-36">
          <mxGeometry x="270" y="2094" width="120" height="60" as="geometry" />
        </mxCell>
        <mxCell id="zS9Ld9DrV2a43Eu4lv0S-80" value="" style="edgeStyle=orthogonalEdgeStyle;rounded=0;orthogonalLoop=1;jettySize=auto;html=1;" edge="1" parent="mvioNwK95yMqdUQ73LqQ-36" source="zS9Ld9DrV2a43Eu4lv0S-77" target="zS9Ld9DrV2a43Eu4lv0S-79">
          <mxGeometry relative="1" as="geometry" />
        </mxCell>
        <mxCell id="zS9Ld9DrV2a43Eu4lv0S-85" value="" style="edgeStyle=orthogonalEdgeStyle;rounded=0;orthogonalLoop=1;jettySize=auto;html=1;" edge="1" parent="mvioNwK95yMqdUQ73LqQ-36" source="zS9Ld9DrV2a43Eu4lv0S-77" target="zS9Ld9DrV2a43Eu4lv0S-84">
          <mxGeometry relative="1" as="geometry" />
        </mxCell>
        <mxCell id="zS9Ld9DrV2a43Eu4lv0S-77" value="if pair &amp;gt;= 500 &amp;amp;&amp;amp; cout_B500 &amp;gt;= 1" style="rhombus;whiteSpace=wrap;html=1;" vertex="1" parent="mvioNwK95yMqdUQ73LqQ-36">
          <mxGeometry x="270" y="2224" width="120" height="80" as="geometry" />
        </mxCell>
        <mxCell id="zS9Ld9DrV2a43Eu4lv0S-79" value="&lt;div&gt;cout_B500 -= 1&lt;/div&gt;&lt;div&gt;pair = pair - 500&lt;/div&gt;" style="whiteSpace=wrap;html=1;" vertex="1" parent="mvioNwK95yMqdUQ73LqQ-36">
          <mxGeometry x="270" y="2394" width="120" height="60" as="geometry" />
        </mxCell>
        <mxCell id="zS9Ld9DrV2a43Eu4lv0S-81" value="" style="strokeWidth=2;html=1;shape=mxgraph.flowchart.start_2;whiteSpace=wrap;" vertex="1" parent="mvioNwK95yMqdUQ73LqQ-36">
          <mxGeometry x="320" y="2180" width="20" height="20" as="geometry" />
        </mxCell>
        <mxCell id="zS9Ld9DrV2a43Eu4lv0S-82" value="" style="edgeStyle=orthogonalEdgeStyle;rounded=0;orthogonalLoop=1;jettySize=auto;html=1;" edge="1" parent="mvioNwK95yMqdUQ73LqQ-36" source="zS9Ld9DrV2a43Eu4lv0S-75" target="zS9Ld9DrV2a43Eu4lv0S-81">
          <mxGeometry relative="1" as="geometry">
            <mxPoint x="-390" y="2754" as="sourcePoint" />
            <mxPoint x="-390" y="2824" as="targetPoint" />
          </mxGeometry>
        </mxCell>
        <mxCell id="zS9Ld9DrV2a43Eu4lv0S-83" style="edgeStyle=orthogonalEdgeStyle;rounded=0;orthogonalLoop=1;jettySize=auto;html=1;exitX=0;exitY=0.5;exitDx=0;exitDy=0;entryX=0;entryY=0.5;entryDx=0;entryDy=0;entryPerimeter=0;" edge="1" parent="mvioNwK95yMqdUQ73LqQ-36" source="zS9Ld9DrV2a43Eu4lv0S-79" target="zS9Ld9DrV2a43Eu4lv0S-81">
          <mxGeometry relative="1" as="geometry" />
        </mxCell>
        <mxCell id="zS9Ld9DrV2a43Eu4lv0S-87" value="" style="edgeStyle=orthogonalEdgeStyle;rounded=0;orthogonalLoop=1;jettySize=auto;html=1;" edge="1" parent="mvioNwK95yMqdUQ73LqQ-36" source="zS9Ld9DrV2a43Eu4lv0S-84" target="zS9Ld9DrV2a43Eu4lv0S-86">
          <mxGeometry relative="1" as="geometry" />
        </mxCell>
        <mxCell id="zS9Ld9DrV2a43Eu4lv0S-91" value="" style="edgeStyle=orthogonalEdgeStyle;rounded=0;orthogonalLoop=1;jettySize=auto;html=1;" edge="1" parent="mvioNwK95yMqdUQ73LqQ-36" source="zS9Ld9DrV2a43Eu4lv0S-84" target="zS9Ld9DrV2a43Eu4lv0S-90">
          <mxGeometry relative="1" as="geometry" />
        </mxCell>
        <mxCell id="zS9Ld9DrV2a43Eu4lv0S-84" value="if pair &amp;gt;= 100 &amp;amp;&amp;amp; cout_B100 &amp;gt;= 1" style="rhombus;whiteSpace=wrap;html=1;" vertex="1" parent="mvioNwK95yMqdUQ73LqQ-36">
          <mxGeometry x="470" y="2224" width="120" height="80" as="geometry" />
        </mxCell>
        <mxCell id="zS9Ld9DrV2a43Eu4lv0S-86" value="&lt;div&gt;cout_B100&amp;nbsp; -= 1&lt;/div&gt;&lt;div&gt;pair = pair - 100&lt;/div&gt;" style="whiteSpace=wrap;html=1;" vertex="1" parent="mvioNwK95yMqdUQ73LqQ-36">
          <mxGeometry x="470" y="2394" width="120" height="60" as="geometry" />
        </mxCell>
        <mxCell id="zS9Ld9DrV2a43Eu4lv0S-93" value="" style="edgeStyle=orthogonalEdgeStyle;rounded=0;orthogonalLoop=1;jettySize=auto;html=1;" edge="1" parent="mvioNwK95yMqdUQ73LqQ-36" source="zS9Ld9DrV2a43Eu4lv0S-90" target="zS9Ld9DrV2a43Eu4lv0S-92">
          <mxGeometry relative="1" as="geometry" />
        </mxCell>
        <mxCell id="zS9Ld9DrV2a43Eu4lv0S-97" value="" style="edgeStyle=orthogonalEdgeStyle;rounded=0;orthogonalLoop=1;jettySize=auto;html=1;" edge="1" parent="mvioNwK95yMqdUQ73LqQ-36" source="zS9Ld9DrV2a43Eu4lv0S-90" target="zS9Ld9DrV2a43Eu4lv0S-96">
          <mxGeometry relative="1" as="geometry" />
        </mxCell>
        <mxCell id="zS9Ld9DrV2a43Eu4lv0S-90" value="if pair &amp;gt;= 50 &amp;amp;&amp;amp; cout_B50 &amp;gt;= 1" style="rhombus;whiteSpace=wrap;html=1;" vertex="1" parent="mvioNwK95yMqdUQ73LqQ-36">
          <mxGeometry x="670" y="2224" width="120" height="80" as="geometry" />
        </mxCell>
        <mxCell id="zS9Ld9DrV2a43Eu4lv0S-95" value="" style="edgeStyle=orthogonalEdgeStyle;rounded=0;orthogonalLoop=1;jettySize=auto;html=1;" edge="1" parent="mvioNwK95yMqdUQ73LqQ-36" source="zS9Ld9DrV2a43Eu4lv0S-92" target="zS9Ld9DrV2a43Eu4lv0S-94">
          <mxGeometry relative="1" as="geometry" />
        </mxCell>
        <mxCell id="zS9Ld9DrV2a43Eu4lv0S-99" value="" style="edgeStyle=orthogonalEdgeStyle;rounded=0;orthogonalLoop=1;jettySize=auto;html=1;" edge="1" parent="mvioNwK95yMqdUQ73LqQ-36" source="zS9Ld9DrV2a43Eu4lv0S-92" target="zS9Ld9DrV2a43Eu4lv0S-98">
          <mxGeometry relative="1" as="geometry" />
        </mxCell>
        <mxCell id="zS9Ld9DrV2a43Eu4lv0S-92" value="if pair &amp;gt;= 20 &amp;amp;&amp;amp; cout_B20 &amp;gt;= 1" style="rhombus;whiteSpace=wrap;html=1;" vertex="1" parent="mvioNwK95yMqdUQ73LqQ-36">
          <mxGeometry x="870" y="2224" width="120" height="80" as="geometry" />
        </mxCell>
        <mxCell id="zS9Ld9DrV2a43Eu4lv0S-101" value="" style="edgeStyle=orthogonalEdgeStyle;rounded=0;orthogonalLoop=1;jettySize=auto;html=1;" edge="1" parent="mvioNwK95yMqdUQ73LqQ-36" source="zS9Ld9DrV2a43Eu4lv0S-94" target="zS9Ld9DrV2a43Eu4lv0S-100">
          <mxGeometry relative="1" as="geometry" />
        </mxCell>
        <mxCell id="zS9Ld9DrV2a43Eu4lv0S-105" value="" style="edgeStyle=orthogonalEdgeStyle;rounded=0;orthogonalLoop=1;jettySize=auto;html=1;" edge="1" parent="mvioNwK95yMqdUQ73LqQ-36" source="zS9Ld9DrV2a43Eu4lv0S-94" target="zS9Ld9DrV2a43Eu4lv0S-104">
          <mxGeometry relative="1" as="geometry" />
        </mxCell>
        <mxCell id="zS9Ld9DrV2a43Eu4lv0S-94" value="if pair &amp;gt;= 10 &amp;amp;&amp;amp; cout_B10 &amp;gt;= 1" style="rhombus;whiteSpace=wrap;html=1;" vertex="1" parent="mvioNwK95yMqdUQ73LqQ-36">
          <mxGeometry x="1070" y="2224" width="120" height="80" as="geometry" />
        </mxCell>
        <mxCell id="zS9Ld9DrV2a43Eu4lv0S-96" value="&lt;div&gt;&lt;span style=&quot;background-color: transparent; color: light-dark(rgb(0, 0, 0), rgb(255, 255, 255));&quot;&gt;cout_B50 -= 1&lt;/span&gt;&lt;/div&gt;&lt;div&gt;&lt;span style=&quot;background-color: transparent; color: light-dark(rgb(0, 0, 0), rgb(255, 255, 255));&quot;&gt;pair = pair - 50&lt;/span&gt;&lt;/div&gt;" style="whiteSpace=wrap;html=1;" vertex="1" parent="mvioNwK95yMqdUQ73LqQ-36">
          <mxGeometry x="670" y="2394" width="120" height="60" as="geometry" />
        </mxCell>
        <mxCell id="zS9Ld9DrV2a43Eu4lv0S-98" value="&lt;div&gt;cout_B20 -= 1&lt;/div&gt;&lt;div&gt;pair = pair - 20&lt;/div&gt;" style="whiteSpace=wrap;html=1;" vertex="1" parent="mvioNwK95yMqdUQ73LqQ-36">
          <mxGeometry x="870" y="2394" width="120" height="60" as="geometry" />
        </mxCell>
        <mxCell id="zS9Ld9DrV2a43Eu4lv0S-100" value="&lt;div&gt;cout_B10 -= 1&lt;/div&gt;&lt;div&gt;pair = pair - 10&lt;/div&gt;" style="whiteSpace=wrap;html=1;" vertex="1" parent="mvioNwK95yMqdUQ73LqQ-36">
          <mxGeometry x="1070" y="2394" width="120" height="60" as="geometry" />
        </mxCell>
        <mxCell id="zS9Ld9DrV2a43Eu4lv0S-107" value="" style="edgeStyle=orthogonalEdgeStyle;rounded=0;orthogonalLoop=1;jettySize=auto;html=1;" edge="1" parent="mvioNwK95yMqdUQ73LqQ-36" source="zS9Ld9DrV2a43Eu4lv0S-104" target="zS9Ld9DrV2a43Eu4lv0S-106">
          <mxGeometry relative="1" as="geometry" />
        </mxCell>
        <mxCell id="zS9Ld9DrV2a43Eu4lv0S-109" value="" style="edgeStyle=orthogonalEdgeStyle;rounded=0;orthogonalLoop=1;jettySize=auto;html=1;" edge="1" parent="mvioNwK95yMqdUQ73LqQ-36" source="zS9Ld9DrV2a43Eu4lv0S-104" target="zS9Ld9DrV2a43Eu4lv0S-108">
          <mxGeometry relative="1" as="geometry" />
        </mxCell>
        <mxCell id="zS9Ld9DrV2a43Eu4lv0S-104" value="if pair &amp;gt;= 5 &amp;amp;&amp;amp; cout_B5 &amp;gt;= 1" style="rhombus;whiteSpace=wrap;html=1;" vertex="1" parent="mvioNwK95yMqdUQ73LqQ-36">
          <mxGeometry x="1270" y="2224" width="120" height="80" as="geometry" />
        </mxCell>
        <mxCell id="zS9Ld9DrV2a43Eu4lv0S-106" value="cout_B5 -= 1&lt;div&gt;pair = pair - 5&lt;/div&gt;" style="whiteSpace=wrap;html=1;" vertex="1" parent="mvioNwK95yMqdUQ73LqQ-36">
          <mxGeometry x="1270" y="2394" width="120" height="60" as="geometry" />
        </mxCell>
        <mxCell id="zS9Ld9DrV2a43Eu4lv0S-113" value="" style="edgeStyle=orthogonalEdgeStyle;rounded=0;orthogonalLoop=1;jettySize=auto;html=1;" edge="1" parent="mvioNwK95yMqdUQ73LqQ-36" source="zS9Ld9DrV2a43Eu4lv0S-108" target="zS9Ld9DrV2a43Eu4lv0S-112">
          <mxGeometry relative="1" as="geometry" />
        </mxCell>
        <mxCell id="zS9Ld9DrV2a43Eu4lv0S-171" value="" style="edgeStyle=orthogonalEdgeStyle;rounded=0;orthogonalLoop=1;jettySize=auto;html=1;entryX=0.5;entryY=0;entryDx=0;entryDy=0;exitX=1;exitY=0.5;exitDx=0;exitDy=0;" edge="1" parent="mvioNwK95yMqdUQ73LqQ-36" source="zS9Ld9DrV2a43Eu4lv0S-191" target="zS9Ld9DrV2a43Eu4lv0S-166">
          <mxGeometry relative="1" as="geometry">
            <mxPoint x="565" y="2630" as="targetPoint" />
            <Array as="points">
              <mxPoint x="1850" y="2264" />
              <mxPoint x="1850" y="2530" />
              <mxPoint x="330" y="2530" />
            </Array>
          </mxGeometry>
        </mxCell>
        <mxCell id="zS9Ld9DrV2a43Eu4lv0S-192" value="" style="edgeStyle=orthogonalEdgeStyle;rounded=0;orthogonalLoop=1;jettySize=auto;html=1;" edge="1" parent="mvioNwK95yMqdUQ73LqQ-36" source="zS9Ld9DrV2a43Eu4lv0S-108" target="zS9Ld9DrV2a43Eu4lv0S-191">
          <mxGeometry relative="1" as="geometry" />
        </mxCell>
        <mxCell id="zS9Ld9DrV2a43Eu4lv0S-108" value="if pair &amp;gt;= 2 &amp;amp;&amp;amp; cout_B2 &amp;gt;= 1" style="rhombus;whiteSpace=wrap;html=1;" vertex="1" parent="mvioNwK95yMqdUQ73LqQ-36">
          <mxGeometry x="1470" y="2224" width="120" height="80" as="geometry" />
        </mxCell>
        <mxCell id="zS9Ld9DrV2a43Eu4lv0S-112" value="cout_B2 -= 1&lt;div&gt;pair = pair - 2&lt;/div&gt;" style="whiteSpace=wrap;html=1;" vertex="1" parent="mvioNwK95yMqdUQ73LqQ-36">
          <mxGeometry x="1470" y="2394" width="120" height="60" as="geometry" />
        </mxCell>
        <mxCell id="zS9Ld9DrV2a43Eu4lv0S-115" style="edgeStyle=orthogonalEdgeStyle;rounded=0;orthogonalLoop=1;jettySize=auto;html=1;exitX=0.5;exitY=1;exitDx=0;exitDy=0;entryX=0;entryY=0.5;entryDx=0;entryDy=0;entryPerimeter=0;" edge="1" parent="mvioNwK95yMqdUQ73LqQ-36" source="zS9Ld9DrV2a43Eu4lv0S-86" target="zS9Ld9DrV2a43Eu4lv0S-81">
          <mxGeometry relative="1" as="geometry">
            <Array as="points">
              <mxPoint x="530" y="2474" />
              <mxPoint x="230" y="2474" />
              <mxPoint x="230" y="2190" />
            </Array>
          </mxGeometry>
        </mxCell>
        <mxCell id="zS9Ld9DrV2a43Eu4lv0S-116" value="F" style="text;html=1;align=center;verticalAlign=middle;resizable=0;points=[];autosize=1;strokeColor=none;fillColor=none;" vertex="1" parent="mvioNwK95yMqdUQ73LqQ-36">
          <mxGeometry x="380" y="2224" width="30" height="30" as="geometry" />
        </mxCell>
        <mxCell id="zS9Ld9DrV2a43Eu4lv0S-117" value="F" style="text;html=1;align=center;verticalAlign=middle;resizable=0;points=[];autosize=1;strokeColor=none;fillColor=none;" vertex="1" parent="mvioNwK95yMqdUQ73LqQ-36">
          <mxGeometry x="580" y="2224" width="30" height="30" as="geometry" />
        </mxCell>
        <mxCell id="zS9Ld9DrV2a43Eu4lv0S-118" value="F" style="text;html=1;align=center;verticalAlign=middle;resizable=0;points=[];autosize=1;strokeColor=none;fillColor=none;" vertex="1" parent="mvioNwK95yMqdUQ73LqQ-36">
          <mxGeometry x="785" y="2224" width="30" height="30" as="geometry" />
        </mxCell>
        <mxCell id="zS9Ld9DrV2a43Eu4lv0S-119" value="F" style="text;html=1;align=center;verticalAlign=middle;resizable=0;points=[];autosize=1;strokeColor=none;fillColor=none;" vertex="1" parent="mvioNwK95yMqdUQ73LqQ-36">
          <mxGeometry x="980" y="2224" width="30" height="30" as="geometry" />
        </mxCell>
        <mxCell id="zS9Ld9DrV2a43Eu4lv0S-120" value="F" style="text;html=1;align=center;verticalAlign=middle;resizable=0;points=[];autosize=1;strokeColor=none;fillColor=none;" vertex="1" parent="mvioNwK95yMqdUQ73LqQ-36">
          <mxGeometry x="1179" y="2224" width="30" height="30" as="geometry" />
        </mxCell>
        <mxCell id="zS9Ld9DrV2a43Eu4lv0S-121" value="F" style="text;html=1;align=center;verticalAlign=middle;resizable=0;points=[];autosize=1;strokeColor=none;fillColor=none;" vertex="1" parent="mvioNwK95yMqdUQ73LqQ-36">
          <mxGeometry x="1370" y="2224" width="30" height="30" as="geometry" />
        </mxCell>
        <mxCell id="zS9Ld9DrV2a43Eu4lv0S-122" value="F" style="text;html=1;align=center;verticalAlign=middle;resizable=0;points=[];autosize=1;strokeColor=none;fillColor=none;" vertex="1" parent="mvioNwK95yMqdUQ73LqQ-36">
          <mxGeometry x="1570" y="2230" width="30" height="30" as="geometry" />
        </mxCell>
        <mxCell id="zS9Ld9DrV2a43Eu4lv0S-123" value="T" style="text;html=1;align=center;verticalAlign=middle;resizable=0;points=[];autosize=1;strokeColor=none;fillColor=none;" vertex="1" parent="mvioNwK95yMqdUQ73LqQ-36">
          <mxGeometry x="340" y="2300" width="30" height="30" as="geometry" />
        </mxCell>
        <mxCell id="zS9Ld9DrV2a43Eu4lv0S-124" value="T" style="text;html=1;align=center;verticalAlign=middle;resizable=0;points=[];autosize=1;strokeColor=none;fillColor=none;" vertex="1" parent="mvioNwK95yMqdUQ73LqQ-36">
          <mxGeometry x="545" y="2300" width="30" height="30" as="geometry" />
        </mxCell>
        <mxCell id="zS9Ld9DrV2a43Eu4lv0S-125" value="T" style="text;html=1;align=center;verticalAlign=middle;resizable=0;points=[];autosize=1;strokeColor=none;fillColor=none;" vertex="1" parent="mvioNwK95yMqdUQ73LqQ-36">
          <mxGeometry x="740" y="2300" width="30" height="30" as="geometry" />
        </mxCell>
        <mxCell id="zS9Ld9DrV2a43Eu4lv0S-126" value="T" style="text;html=1;align=center;verticalAlign=middle;resizable=0;points=[];autosize=1;strokeColor=none;fillColor=none;" vertex="1" parent="mvioNwK95yMqdUQ73LqQ-36">
          <mxGeometry x="940" y="2300" width="30" height="30" as="geometry" />
        </mxCell>
        <mxCell id="zS9Ld9DrV2a43Eu4lv0S-127" value="T" style="text;html=1;align=center;verticalAlign=middle;resizable=0;points=[];autosize=1;strokeColor=none;fillColor=none;" vertex="1" parent="mvioNwK95yMqdUQ73LqQ-36">
          <mxGeometry x="1144" y="2300" width="30" height="30" as="geometry" />
        </mxCell>
        <mxCell id="zS9Ld9DrV2a43Eu4lv0S-129" value="T" style="text;html=1;align=center;verticalAlign=middle;resizable=0;points=[];autosize=1;strokeColor=none;fillColor=none;" vertex="1" parent="mvioNwK95yMqdUQ73LqQ-36">
          <mxGeometry x="1540" y="2300" width="30" height="30" as="geometry" />
        </mxCell>
        <mxCell id="zS9Ld9DrV2a43Eu4lv0S-130" style="edgeStyle=orthogonalEdgeStyle;rounded=0;orthogonalLoop=1;jettySize=auto;html=1;exitX=0.5;exitY=1;exitDx=0;exitDy=0;entryX=0;entryY=0.5;entryDx=0;entryDy=0;entryPerimeter=0;" edge="1" parent="mvioNwK95yMqdUQ73LqQ-36" source="zS9Ld9DrV2a43Eu4lv0S-96" target="zS9Ld9DrV2a43Eu4lv0S-81">
          <mxGeometry relative="1" as="geometry">
            <Array as="points">
              <mxPoint x="730" y="2474" />
              <mxPoint x="210" y="2474" />
              <mxPoint x="210" y="2190" />
            </Array>
          </mxGeometry>
        </mxCell>
        <mxCell id="zS9Ld9DrV2a43Eu4lv0S-131" style="edgeStyle=orthogonalEdgeStyle;rounded=0;orthogonalLoop=1;jettySize=auto;html=1;exitX=0.5;exitY=1;exitDx=0;exitDy=0;entryX=0;entryY=0.5;entryDx=0;entryDy=0;entryPerimeter=0;" edge="1" parent="mvioNwK95yMqdUQ73LqQ-36" source="zS9Ld9DrV2a43Eu4lv0S-98" target="zS9Ld9DrV2a43Eu4lv0S-81">
          <mxGeometry relative="1" as="geometry">
            <Array as="points">
              <mxPoint x="930" y="2474" />
              <mxPoint x="190" y="2474" />
              <mxPoint x="190" y="2190" />
            </Array>
          </mxGeometry>
        </mxCell>
        <mxCell id="zS9Ld9DrV2a43Eu4lv0S-133" style="edgeStyle=orthogonalEdgeStyle;rounded=0;orthogonalLoop=1;jettySize=auto;html=1;exitX=0.5;exitY=1;exitDx=0;exitDy=0;entryX=0;entryY=0.5;entryDx=0;entryDy=0;entryPerimeter=0;" edge="1" parent="mvioNwK95yMqdUQ73LqQ-36" source="zS9Ld9DrV2a43Eu4lv0S-100" target="zS9Ld9DrV2a43Eu4lv0S-81">
          <mxGeometry relative="1" as="geometry">
            <Array as="points">
              <mxPoint x="1130" y="2474" />
              <mxPoint x="170" y="2474" />
              <mxPoint x="170" y="2190" />
            </Array>
          </mxGeometry>
        </mxCell>
        <mxCell id="zS9Ld9DrV2a43Eu4lv0S-134" style="edgeStyle=orthogonalEdgeStyle;rounded=0;orthogonalLoop=1;jettySize=auto;html=1;exitX=0.5;exitY=1;exitDx=0;exitDy=0;entryX=0;entryY=0.5;entryDx=0;entryDy=0;entryPerimeter=0;" edge="1" parent="mvioNwK95yMqdUQ73LqQ-36" source="zS9Ld9DrV2a43Eu4lv0S-106" target="zS9Ld9DrV2a43Eu4lv0S-81">
          <mxGeometry relative="1" as="geometry">
            <Array as="points">
              <mxPoint x="1330" y="2474" />
              <mxPoint x="150" y="2474" />
              <mxPoint x="150" y="2190" />
            </Array>
          </mxGeometry>
        </mxCell>
        <mxCell id="zS9Ld9DrV2a43Eu4lv0S-135" style="edgeStyle=orthogonalEdgeStyle;rounded=0;orthogonalLoop=1;jettySize=auto;html=1;exitX=0.5;exitY=1;exitDx=0;exitDy=0;entryX=0;entryY=0.5;entryDx=0;entryDy=0;entryPerimeter=0;" edge="1" parent="mvioNwK95yMqdUQ73LqQ-36" source="zS9Ld9DrV2a43Eu4lv0S-112" target="zS9Ld9DrV2a43Eu4lv0S-81">
          <mxGeometry relative="1" as="geometry">
            <Array as="points">
              <mxPoint x="1530" y="2474" />
              <mxPoint x="130" y="2474" />
              <mxPoint x="130" y="2190" />
            </Array>
          </mxGeometry>
        </mxCell>
        <mxCell id="zS9Ld9DrV2a43Eu4lv0S-140" value="F" style="text;html=1;align=center;verticalAlign=middle;resizable=0;points=[];autosize=1;strokeColor=none;fillColor=none;" vertex="1" parent="mvioNwK95yMqdUQ73LqQ-36">
          <mxGeometry x="395" y="1070" width="30" height="30" as="geometry" />
        </mxCell>
        <mxCell id="zS9Ld9DrV2a43Eu4lv0S-141" value="F" style="text;html=1;align=center;verticalAlign=middle;resizable=0;points=[];autosize=1;strokeColor=none;fillColor=none;" vertex="1" parent="mvioNwK95yMqdUQ73LqQ-36">
          <mxGeometry x="580" y="1120" width="30" height="30" as="geometry" />
        </mxCell>
        <mxCell id="zS9Ld9DrV2a43Eu4lv0S-142" value="F" style="text;html=1;align=center;verticalAlign=middle;resizable=0;points=[];autosize=1;strokeColor=none;fillColor=none;" vertex="1" parent="mvioNwK95yMqdUQ73LqQ-36">
          <mxGeometry x="790" y="1150" width="30" height="30" as="geometry" />
        </mxCell>
        <mxCell id="zS9Ld9DrV2a43Eu4lv0S-146" value="F" style="text;html=1;align=center;verticalAlign=middle;resizable=0;points=[];autosize=1;strokeColor=none;fillColor=none;" vertex="1" parent="mvioNwK95yMqdUQ73LqQ-36">
          <mxGeometry x="1624" y="1270" width="30" height="30" as="geometry" />
        </mxCell>
        <mxCell id="zS9Ld9DrV2a43Eu4lv0S-157" value="T" style="text;html=1;align=center;verticalAlign=middle;resizable=0;points=[];autosize=1;strokeColor=none;fillColor=none;" vertex="1" parent="mvioNwK95yMqdUQ73LqQ-36">
          <mxGeometry x="340" y="1844" width="30" height="30" as="geometry" />
        </mxCell>
        <mxCell id="zS9Ld9DrV2a43Eu4lv0S-158" value="T" style="text;html=1;align=center;verticalAlign=middle;resizable=0;points=[];autosize=1;strokeColor=none;fillColor=none;" vertex="1" parent="mvioNwK95yMqdUQ73LqQ-36">
          <mxGeometry x="340" y="2010" width="30" height="30" as="geometry" />
        </mxCell>
        <mxCell id="zS9Ld9DrV2a43Eu4lv0S-160" value="F" style="text;html=1;align=center;verticalAlign=middle;resizable=0;points=[];autosize=1;strokeColor=none;fillColor=none;" vertex="1" parent="mvioNwK95yMqdUQ73LqQ-36">
          <mxGeometry x="250" y="1920" width="30" height="30" as="geometry" />
        </mxCell>
        <mxCell id="zS9Ld9DrV2a43Eu4lv0S-247" value="" style="edgeStyle=orthogonalEdgeStyle;rounded=0;orthogonalLoop=1;jettySize=auto;html=1;" edge="1" parent="mvioNwK95yMqdUQ73LqQ-36" source="zS9Ld9DrV2a43Eu4lv0S-166" target="mvioNwK95yMqdUQ73LqQ-69">
          <mxGeometry relative="1" as="geometry" />
        </mxCell>
        <mxCell id="zS9Ld9DrV2a43Eu4lv0S-166" value="ทอนเงินตามจำนวนแบงที่คำนวณ" style="shape=parallelogram;perimeter=parallelogramPerimeter;whiteSpace=wrap;html=1;fixedSize=1;" vertex="1" parent="mvioNwK95yMqdUQ73LqQ-36">
          <mxGeometry x="270" y="2620" width="120" height="60" as="geometry" />
        </mxCell>
        <mxCell id="zS9Ld9DrV2a43Eu4lv0S-128" value="T" style="text;html=1;align=center;verticalAlign=middle;resizable=0;points=[];autosize=1;strokeColor=none;fillColor=none;" vertex="1" parent="mvioNwK95yMqdUQ73LqQ-36">
          <mxGeometry x="1350" y="2290" width="30" height="30" as="geometry" />
        </mxCell>
        <mxCell id="zS9Ld9DrV2a43Eu4lv0S-143" value="F" style="text;html=1;align=center;verticalAlign=middle;resizable=0;points=[];autosize=1;strokeColor=none;fillColor=none;" vertex="1" parent="mvioNwK95yMqdUQ73LqQ-36">
          <mxGeometry x="1000" y="1170" width="30" height="30" as="geometry" />
        </mxCell>
        <mxCell id="zS9Ld9DrV2a43Eu4lv0S-144" value="F" style="text;html=1;align=center;verticalAlign=middle;resizable=0;points=[];autosize=1;strokeColor=none;fillColor=none;" vertex="1" parent="mvioNwK95yMqdUQ73LqQ-36">
          <mxGeometry x="1210" y="1190" width="30" height="30" as="geometry" />
        </mxCell>
        <mxCell id="zS9Ld9DrV2a43Eu4lv0S-145" value="F" style="text;html=1;align=center;verticalAlign=middle;resizable=0;points=[];autosize=1;strokeColor=none;fillColor=none;" vertex="1" parent="mvioNwK95yMqdUQ73LqQ-36">
          <mxGeometry x="1420" y="1230" width="30" height="30" as="geometry" />
        </mxCell>
        <mxCell id="zS9Ld9DrV2a43Eu4lv0S-147" value="F" style="text;html=1;align=center;verticalAlign=middle;resizable=0;points=[];autosize=1;strokeColor=none;fillColor=none;" vertex="1" parent="mvioNwK95yMqdUQ73LqQ-36">
          <mxGeometry x="1820" y="1280" width="30" height="30" as="geometry" />
        </mxCell>
        <mxCell id="zS9Ld9DrV2a43Eu4lv0S-148" value="T" style="text;html=1;align=center;verticalAlign=middle;resizable=0;points=[];autosize=1;strokeColor=none;fillColor=none;" vertex="1" parent="mvioNwK95yMqdUQ73LqQ-36">
          <mxGeometry x="340" y="1140" width="30" height="30" as="geometry" />
        </mxCell>
        <mxCell id="zS9Ld9DrV2a43Eu4lv0S-150" value="T" style="text;html=1;align=center;verticalAlign=middle;resizable=0;points=[];autosize=1;strokeColor=none;fillColor=none;" vertex="1" parent="mvioNwK95yMqdUQ73LqQ-36">
          <mxGeometry x="530" y="1180" width="30" height="30" as="geometry" />
        </mxCell>
        <mxCell id="zS9Ld9DrV2a43Eu4lv0S-151" value="T" style="text;html=1;align=center;verticalAlign=middle;resizable=0;points=[];autosize=1;strokeColor=none;fillColor=none;" vertex="1" parent="mvioNwK95yMqdUQ73LqQ-36">
          <mxGeometry x="740" y="1220" width="30" height="30" as="geometry" />
        </mxCell>
        <mxCell id="zS9Ld9DrV2a43Eu4lv0S-152" value="T" style="text;html=1;align=center;verticalAlign=middle;resizable=0;points=[];autosize=1;strokeColor=none;fillColor=none;" vertex="1" parent="mvioNwK95yMqdUQ73LqQ-36">
          <mxGeometry x="950" y="1240" width="30" height="30" as="geometry" />
        </mxCell>
        <mxCell id="zS9Ld9DrV2a43Eu4lv0S-153" value="T" style="text;html=1;align=center;verticalAlign=middle;resizable=0;points=[];autosize=1;strokeColor=none;fillColor=none;" vertex="1" parent="mvioNwK95yMqdUQ73LqQ-36">
          <mxGeometry x="1160" y="1270" width="30" height="30" as="geometry" />
        </mxCell>
        <mxCell id="zS9Ld9DrV2a43Eu4lv0S-154" value="T" style="text;html=1;align=center;verticalAlign=middle;resizable=0;points=[];autosize=1;strokeColor=none;fillColor=none;" vertex="1" parent="mvioNwK95yMqdUQ73LqQ-36">
          <mxGeometry x="1370" y="1300" width="30" height="30" as="geometry" />
        </mxCell>
        <mxCell id="zS9Ld9DrV2a43Eu4lv0S-155" value="T" style="text;html=1;align=center;verticalAlign=middle;resizable=0;points=[];autosize=1;strokeColor=none;fillColor=none;" vertex="1" parent="mvioNwK95yMqdUQ73LqQ-36">
          <mxGeometry x="1570" y="1330" width="30" height="30" as="geometry" />
        </mxCell>
        <mxCell id="zS9Ld9DrV2a43Eu4lv0S-156" value="T" style="text;html=1;align=center;verticalAlign=middle;resizable=0;points=[];autosize=1;strokeColor=none;fillColor=none;" vertex="1" parent="mvioNwK95yMqdUQ73LqQ-36">
          <mxGeometry x="1780" y="1360" width="30" height="30" as="geometry" />
        </mxCell>
        <mxCell id="zS9Ld9DrV2a43Eu4lv0S-159" value="F" style="text;html=1;align=center;verticalAlign=middle;resizable=0;points=[];autosize=1;strokeColor=none;fillColor=none;" vertex="1" parent="mvioNwK95yMqdUQ73LqQ-36">
          <mxGeometry x="250" y="1760" width="30" height="30" as="geometry" />
        </mxCell>
        <mxCell id="zS9Ld9DrV2a43Eu4lv0S-176" value="" style="edgeStyle=orthogonalEdgeStyle;rounded=0;orthogonalLoop=1;jettySize=auto;html=1;" edge="1" parent="mvioNwK95yMqdUQ73LqQ-36" source="zS9Ld9DrV2a43Eu4lv0S-173" target="zS9Ld9DrV2a43Eu4lv0S-175">
          <mxGeometry relative="1" as="geometry" />
        </mxCell>
        <mxCell id="zS9Ld9DrV2a43Eu4lv0S-217" value="" style="edgeStyle=orthogonalEdgeStyle;rounded=0;orthogonalLoop=1;jettySize=auto;html=1;" edge="1" parent="mvioNwK95yMqdUQ73LqQ-36" source="zS9Ld9DrV2a43Eu4lv0S-173" target="zS9Ld9DrV2a43Eu4lv0S-216">
          <mxGeometry relative="1" as="geometry" />
        </mxCell>
        <mxCell id="zS9Ld9DrV2a43Eu4lv0S-173" value="is numB == 500" style="rhombus;whiteSpace=wrap;html=1;fontFamily=Sarabun;fontSource=https%3A%2F%2Ffonts.googleapis.com%2Fcss%3Ffamily%3DSarabun;" vertex="1" parent="mvioNwK95yMqdUQ73LqQ-36">
          <mxGeometry x="260" y="620" width="120" height="80" as="geometry" />
        </mxCell>
        <mxCell id="zS9Ld9DrV2a43Eu4lv0S-178" value="" style="edgeStyle=orthogonalEdgeStyle;rounded=0;orthogonalLoop=1;jettySize=auto;html=1;" edge="1" parent="mvioNwK95yMqdUQ73LqQ-36" source="zS9Ld9DrV2a43Eu4lv0S-175" target="zS9Ld9DrV2a43Eu4lv0S-177">
          <mxGeometry relative="1" as="geometry" />
        </mxCell>
        <mxCell id="zS9Ld9DrV2a43Eu4lv0S-219" value="" style="edgeStyle=orthogonalEdgeStyle;rounded=0;orthogonalLoop=1;jettySize=auto;html=1;" edge="1" parent="mvioNwK95yMqdUQ73LqQ-36" source="zS9Ld9DrV2a43Eu4lv0S-175" target="zS9Ld9DrV2a43Eu4lv0S-218">
          <mxGeometry relative="1" as="geometry" />
        </mxCell>
        <mxCell id="zS9Ld9DrV2a43Eu4lv0S-175" value="is numB == 100" style="rhombus;whiteSpace=wrap;html=1;fontFamily=Sarabun;fontSource=https%3A%2F%2Ffonts.googleapis.com%2Fcss%3Ffamily%3DSarabun;" vertex="1" parent="mvioNwK95yMqdUQ73LqQ-36">
          <mxGeometry x="460" y="620" width="120" height="80" as="geometry" />
        </mxCell>
        <mxCell id="zS9Ld9DrV2a43Eu4lv0S-180" value="" style="edgeStyle=orthogonalEdgeStyle;rounded=0;orthogonalLoop=1;jettySize=auto;html=1;" edge="1" parent="mvioNwK95yMqdUQ73LqQ-36" source="zS9Ld9DrV2a43Eu4lv0S-177" target="zS9Ld9DrV2a43Eu4lv0S-179">
          <mxGeometry relative="1" as="geometry" />
        </mxCell>
        <mxCell id="zS9Ld9DrV2a43Eu4lv0S-221" value="" style="edgeStyle=orthogonalEdgeStyle;rounded=0;orthogonalLoop=1;jettySize=auto;html=1;" edge="1" parent="mvioNwK95yMqdUQ73LqQ-36" source="zS9Ld9DrV2a43Eu4lv0S-177" target="zS9Ld9DrV2a43Eu4lv0S-220">
          <mxGeometry relative="1" as="geometry" />
        </mxCell>
        <mxCell id="zS9Ld9DrV2a43Eu4lv0S-177" value="is numB == 50&amp;nbsp;" style="rhombus;whiteSpace=wrap;html=1;fontFamily=Sarabun;fontSource=https%3A%2F%2Ffonts.googleapis.com%2Fcss%3Ffamily%3DSarabun;" vertex="1" parent="mvioNwK95yMqdUQ73LqQ-36">
          <mxGeometry x="660" y="620" width="120" height="80" as="geometry" />
        </mxCell>
        <mxCell id="zS9Ld9DrV2a43Eu4lv0S-182" value="" style="edgeStyle=orthogonalEdgeStyle;rounded=0;orthogonalLoop=1;jettySize=auto;html=1;" edge="1" parent="mvioNwK95yMqdUQ73LqQ-36" source="zS9Ld9DrV2a43Eu4lv0S-179" target="zS9Ld9DrV2a43Eu4lv0S-181">
          <mxGeometry relative="1" as="geometry" />
        </mxCell>
        <mxCell id="zS9Ld9DrV2a43Eu4lv0S-223" value="" style="edgeStyle=orthogonalEdgeStyle;rounded=0;orthogonalLoop=1;jettySize=auto;html=1;" edge="1" parent="mvioNwK95yMqdUQ73LqQ-36" source="zS9Ld9DrV2a43Eu4lv0S-179" target="zS9Ld9DrV2a43Eu4lv0S-222">
          <mxGeometry relative="1" as="geometry" />
        </mxCell>
        <mxCell id="zS9Ld9DrV2a43Eu4lv0S-179" value="is numB == 20&amp;nbsp;" style="rhombus;whiteSpace=wrap;html=1;fontFamily=Sarabun;fontSource=https%3A%2F%2Ffonts.googleapis.com%2Fcss%3Ffamily%3DSarabun;" vertex="1" parent="mvioNwK95yMqdUQ73LqQ-36">
          <mxGeometry x="860" y="620" width="120" height="80" as="geometry" />
        </mxCell>
        <mxCell id="zS9Ld9DrV2a43Eu4lv0S-184" value="" style="edgeStyle=orthogonalEdgeStyle;rounded=0;orthogonalLoop=1;jettySize=auto;html=1;" edge="1" parent="mvioNwK95yMqdUQ73LqQ-36" source="zS9Ld9DrV2a43Eu4lv0S-181" target="zS9Ld9DrV2a43Eu4lv0S-183">
          <mxGeometry relative="1" as="geometry" />
        </mxCell>
        <mxCell id="zS9Ld9DrV2a43Eu4lv0S-225" value="" style="edgeStyle=orthogonalEdgeStyle;rounded=0;orthogonalLoop=1;jettySize=auto;html=1;" edge="1" parent="mvioNwK95yMqdUQ73LqQ-36" source="zS9Ld9DrV2a43Eu4lv0S-181" target="zS9Ld9DrV2a43Eu4lv0S-224">
          <mxGeometry relative="1" as="geometry" />
        </mxCell>
        <mxCell id="zS9Ld9DrV2a43Eu4lv0S-181" value="is numB == 10&amp;nbsp;" style="rhombus;whiteSpace=wrap;html=1;fontFamily=Sarabun;fontSource=https%3A%2F%2Ffonts.googleapis.com%2Fcss%3Ffamily%3DSarabun;" vertex="1" parent="mvioNwK95yMqdUQ73LqQ-36">
          <mxGeometry x="1060" y="620" width="120" height="80" as="geometry" />
        </mxCell>
        <mxCell id="zS9Ld9DrV2a43Eu4lv0S-186" value="" style="edgeStyle=orthogonalEdgeStyle;rounded=0;orthogonalLoop=1;jettySize=auto;html=1;" edge="1" parent="mvioNwK95yMqdUQ73LqQ-36" source="zS9Ld9DrV2a43Eu4lv0S-183" target="zS9Ld9DrV2a43Eu4lv0S-185">
          <mxGeometry relative="1" as="geometry" />
        </mxCell>
        <mxCell id="zS9Ld9DrV2a43Eu4lv0S-227" value="" style="edgeStyle=orthogonalEdgeStyle;rounded=0;orthogonalLoop=1;jettySize=auto;html=1;" edge="1" parent="mvioNwK95yMqdUQ73LqQ-36" source="zS9Ld9DrV2a43Eu4lv0S-183" target="zS9Ld9DrV2a43Eu4lv0S-226">
          <mxGeometry relative="1" as="geometry" />
        </mxCell>
        <mxCell id="zS9Ld9DrV2a43Eu4lv0S-183" value="is numB == 5&amp;nbsp;" style="rhombus;whiteSpace=wrap;html=1;fontFamily=Sarabun;fontSource=https%3A%2F%2Ffonts.googleapis.com%2Fcss%3Ffamily%3DSarabun;" vertex="1" parent="mvioNwK95yMqdUQ73LqQ-36">
          <mxGeometry x="1260" y="620" width="120" height="80" as="geometry" />
        </mxCell>
        <mxCell id="zS9Ld9DrV2a43Eu4lv0S-190" value="" style="edgeStyle=orthogonalEdgeStyle;rounded=0;orthogonalLoop=1;jettySize=auto;html=1;" edge="1" parent="mvioNwK95yMqdUQ73LqQ-36" source="zS9Ld9DrV2a43Eu4lv0S-185" target="zS9Ld9DrV2a43Eu4lv0S-189">
          <mxGeometry relative="1" as="geometry" />
        </mxCell>
        <mxCell id="zS9Ld9DrV2a43Eu4lv0S-229" value="" style="edgeStyle=orthogonalEdgeStyle;rounded=0;orthogonalLoop=1;jettySize=auto;html=1;" edge="1" parent="mvioNwK95yMqdUQ73LqQ-36" source="zS9Ld9DrV2a43Eu4lv0S-185" target="zS9Ld9DrV2a43Eu4lv0S-228">
          <mxGeometry relative="1" as="geometry" />
        </mxCell>
        <mxCell id="zS9Ld9DrV2a43Eu4lv0S-185" value="is numB == 2" style="rhombus;whiteSpace=wrap;html=1;fontFamily=Sarabun;fontSource=https%3A%2F%2Ffonts.googleapis.com%2Fcss%3Ffamily%3DSarabun;" vertex="1" parent="mvioNwK95yMqdUQ73LqQ-36">
          <mxGeometry x="1460" y="620" width="120" height="80" as="geometry" />
        </mxCell>
        <mxCell id="zS9Ld9DrV2a43Eu4lv0S-187" value="&lt;font face=&quot;Sarabun&quot;&gt;ตรวจจับมูลค่าของเงินที่ใส่เข้ามา&lt;/font&gt;" style="shape=process;whiteSpace=wrap;html=1;backgroundOutline=1;" vertex="1" parent="mvioNwK95yMqdUQ73LqQ-36">
          <mxGeometry x="260" y="560" width="120" height="40" as="geometry" />
        </mxCell>
        <mxCell id="zS9Ld9DrV2a43Eu4lv0S-188" value="" style="edgeStyle=orthogonalEdgeStyle;rounded=0;orthogonalLoop=1;jettySize=auto;html=1;" edge="1" parent="mvioNwK95yMqdUQ73LqQ-36" source="zS9Ld9DrV2a43Eu4lv0S-1" target="zS9Ld9DrV2a43Eu4lv0S-187">
          <mxGeometry relative="1" as="geometry">
            <mxPoint x="-400" y="1140" as="sourcePoint" />
            <mxPoint x="-400" y="1230" as="targetPoint" />
          </mxGeometry>
        </mxCell>
        <mxCell id="zS9Ld9DrV2a43Eu4lv0S-231" value="" style="edgeStyle=orthogonalEdgeStyle;rounded=0;orthogonalLoop=1;jettySize=auto;html=1;" edge="1" parent="mvioNwK95yMqdUQ73LqQ-36" source="zS9Ld9DrV2a43Eu4lv0S-189" target="zS9Ld9DrV2a43Eu4lv0S-230">
          <mxGeometry relative="1" as="geometry" />
        </mxCell>
        <mxCell id="zS9Ld9DrV2a43Eu4lv0S-240" style="edgeStyle=orthogonalEdgeStyle;rounded=0;orthogonalLoop=1;jettySize=auto;html=1;exitX=0.5;exitY=0;exitDx=0;exitDy=0;entryX=1;entryY=0.5;entryDx=0;entryDy=0;entryPerimeter=0;" edge="1" parent="mvioNwK95yMqdUQ73LqQ-36" source="zS9Ld9DrV2a43Eu4lv0S-189" target="zS9Ld9DrV2a43Eu4lv0S-72">
          <mxGeometry relative="1" as="geometry">
            <mxPoint x="1340" y="470" as="targetPoint" />
          </mxGeometry>
        </mxCell>
        <mxCell id="zS9Ld9DrV2a43Eu4lv0S-189" value="is numB == 1" style="rhombus;whiteSpace=wrap;html=1;fontFamily=Sarabun;fontSource=https%3A%2F%2Ffonts.googleapis.com%2Fcss%3Ffamily%3DSarabun;" vertex="1" parent="mvioNwK95yMqdUQ73LqQ-36">
          <mxGeometry x="1660" y="620" width="120" height="80" as="geometry" />
        </mxCell>
        <mxCell id="zS9Ld9DrV2a43Eu4lv0S-196" value="" style="edgeStyle=orthogonalEdgeStyle;rounded=0;orthogonalLoop=1;jettySize=auto;html=1;" edge="1" parent="mvioNwK95yMqdUQ73LqQ-36" source="zS9Ld9DrV2a43Eu4lv0S-191" target="zS9Ld9DrV2a43Eu4lv0S-195">
          <mxGeometry relative="1" as="geometry" />
        </mxCell>
        <mxCell id="zS9Ld9DrV2a43Eu4lv0S-191" value="if pair &amp;gt;= 1 &amp;amp;&amp;amp; cout_B1 &amp;gt;= 1" style="rhombus;whiteSpace=wrap;html=1;" vertex="1" parent="mvioNwK95yMqdUQ73LqQ-36">
          <mxGeometry x="1670" y="2224" width="120" height="80" as="geometry" />
        </mxCell>
        <mxCell id="zS9Ld9DrV2a43Eu4lv0S-195" value="cout_B1 -= 1&lt;div&gt;pair = pair -1&lt;/div&gt;" style="whiteSpace=wrap;html=1;" vertex="1" parent="mvioNwK95yMqdUQ73LqQ-36">
          <mxGeometry x="1670" y="2394" width="120" height="60" as="geometry" />
        </mxCell>
        <mxCell id="zS9Ld9DrV2a43Eu4lv0S-197" style="edgeStyle=orthogonalEdgeStyle;rounded=0;orthogonalLoop=1;jettySize=auto;html=1;exitX=0.5;exitY=1;exitDx=0;exitDy=0;entryX=0;entryY=0.5;entryDx=0;entryDy=0;entryPerimeter=0;" edge="1" parent="mvioNwK95yMqdUQ73LqQ-36" source="zS9Ld9DrV2a43Eu4lv0S-195" target="zS9Ld9DrV2a43Eu4lv0S-81">
          <mxGeometry relative="1" as="geometry">
            <Array as="points">
              <mxPoint x="1730" y="2474" />
              <mxPoint x="110" y="2474" />
              <mxPoint x="110" y="2190" />
            </Array>
          </mxGeometry>
        </mxCell>
        <mxCell id="zS9Ld9DrV2a43Eu4lv0S-200" value="T" style="text;html=1;align=center;verticalAlign=middle;resizable=0;points=[];autosize=1;strokeColor=none;fillColor=none;" vertex="1" parent="mvioNwK95yMqdUQ73LqQ-36">
          <mxGeometry x="340" y="690" width="30" height="30" as="geometry" />
        </mxCell>
        <mxCell id="zS9Ld9DrV2a43Eu4lv0S-215" value="F" style="text;html=1;align=center;verticalAlign=middle;resizable=0;points=[];autosize=1;strokeColor=none;fillColor=none;" vertex="1" parent="mvioNwK95yMqdUQ73LqQ-36">
          <mxGeometry x="1730" y="600" width="30" height="30" as="geometry" />
        </mxCell>
        <mxCell id="zS9Ld9DrV2a43Eu4lv0S-232" value="" style="edgeStyle=orthogonalEdgeStyle;rounded=0;orthogonalLoop=1;jettySize=auto;html=1;" edge="1" parent="mvioNwK95yMqdUQ73LqQ-36" source="zS9Ld9DrV2a43Eu4lv0S-216" target="zS9Ld9DrV2a43Eu4lv0S-48">
          <mxGeometry relative="1" as="geometry" />
        </mxCell>
        <mxCell id="zS9Ld9DrV2a43Eu4lv0S-216" value="cout_B500 += 1&lt;div&gt;num += 500&lt;/div&gt;" style="whiteSpace=wrap;html=1;fontFamily=Sarabun;fontSource=https%3A%2F%2Ffonts.googleapis.com%2Fcss%3Ffamily%3DSarabun;" vertex="1" parent="mvioNwK95yMqdUQ73LqQ-36">
          <mxGeometry x="260" y="729" width="120" height="60" as="geometry" />
        </mxCell>
        <mxCell id="zS9Ld9DrV2a43Eu4lv0S-218" value="cout_B100 += 1&lt;div&gt;num += 100&lt;/div&gt;" style="whiteSpace=wrap;html=1;fontFamily=Sarabun;fontSource=https%3A%2F%2Ffonts.googleapis.com%2Fcss%3Ffamily%3DSarabun;" vertex="1" parent="mvioNwK95yMqdUQ73LqQ-36">
          <mxGeometry x="460" y="729" width="120" height="60" as="geometry" />
        </mxCell>
        <mxCell id="zS9Ld9DrV2a43Eu4lv0S-220" value="cout_B50 += 1&lt;div&gt;num += 50&lt;/div&gt;" style="whiteSpace=wrap;html=1;fontFamily=Sarabun;fontSource=https%3A%2F%2Ffonts.googleapis.com%2Fcss%3Ffamily%3DSarabun;" vertex="1" parent="mvioNwK95yMqdUQ73LqQ-36">
          <mxGeometry x="660" y="729" width="120" height="60" as="geometry" />
        </mxCell>
        <mxCell id="zS9Ld9DrV2a43Eu4lv0S-222" value="cout_B20 += 1&lt;div&gt;num += 20&lt;/div&gt;" style="whiteSpace=wrap;html=1;fontFamily=Sarabun;fontSource=https%3A%2F%2Ffonts.googleapis.com%2Fcss%3Ffamily%3DSarabun;" vertex="1" parent="mvioNwK95yMqdUQ73LqQ-36">
          <mxGeometry x="860" y="729" width="120" height="60" as="geometry" />
        </mxCell>
        <mxCell id="zS9Ld9DrV2a43Eu4lv0S-236" style="edgeStyle=orthogonalEdgeStyle;rounded=0;orthogonalLoop=1;jettySize=auto;html=1;exitX=0.5;exitY=1;exitDx=0;exitDy=0;" edge="1" parent="mvioNwK95yMqdUQ73LqQ-36" source="zS9Ld9DrV2a43Eu4lv0S-224">
          <mxGeometry relative="1" as="geometry">
            <mxPoint x="329.9999999999998" y="880" as="targetPoint" />
          </mxGeometry>
        </mxCell>
        <mxCell id="zS9Ld9DrV2a43Eu4lv0S-224" value="cout_B10 += 1&lt;div&gt;num += 10&lt;/div&gt;" style="whiteSpace=wrap;html=1;fontFamily=Sarabun;fontSource=https%3A%2F%2Ffonts.googleapis.com%2Fcss%3Ffamily%3DSarabun;" vertex="1" parent="mvioNwK95yMqdUQ73LqQ-36">
          <mxGeometry x="1060" y="729" width="120" height="60" as="geometry" />
        </mxCell>
        <mxCell id="zS9Ld9DrV2a43Eu4lv0S-226" value="cout_B5 += 1&lt;div&gt;num += 5&lt;/div&gt;" style="whiteSpace=wrap;html=1;fontFamily=Sarabun;fontSource=https%3A%2F%2Ffonts.googleapis.com%2Fcss%3Ffamily%3DSarabun;" vertex="1" parent="mvioNwK95yMqdUQ73LqQ-36">
          <mxGeometry x="1260" y="729" width="120" height="60" as="geometry" />
        </mxCell>
        <mxCell id="zS9Ld9DrV2a43Eu4lv0S-228" value="cout_B2 += 1&lt;div&gt;num += 2&lt;/div&gt;" style="whiteSpace=wrap;html=1;fontFamily=Sarabun;fontSource=https%3A%2F%2Ffonts.googleapis.com%2Fcss%3Ffamily%3DSarabun;" vertex="1" parent="mvioNwK95yMqdUQ73LqQ-36">
          <mxGeometry x="1460" y="730" width="120" height="60" as="geometry" />
        </mxCell>
        <mxCell id="zS9Ld9DrV2a43Eu4lv0S-230" value="cout_B1 += 1&lt;div&gt;num += 1&lt;/div&gt;" style="whiteSpace=wrap;html=1;fontFamily=Sarabun;fontSource=https%3A%2F%2Ffonts.googleapis.com%2Fcss%3Ffamily%3DSarabun;" vertex="1" parent="mvioNwK95yMqdUQ73LqQ-36">
          <mxGeometry x="1660" y="730" width="120" height="60" as="geometry" />
        </mxCell>
        <mxCell id="zS9Ld9DrV2a43Eu4lv0S-233" style="edgeStyle=orthogonalEdgeStyle;rounded=0;orthogonalLoop=1;jettySize=auto;html=1;exitX=0.5;exitY=1;exitDx=0;exitDy=0;entryX=0.5;entryY=0;entryDx=0;entryDy=0;entryPerimeter=0;" edge="1" parent="mvioNwK95yMqdUQ73LqQ-36" source="zS9Ld9DrV2a43Eu4lv0S-218" target="zS9Ld9DrV2a43Eu4lv0S-48">
          <mxGeometry relative="1" as="geometry" />
        </mxCell>
        <mxCell id="zS9Ld9DrV2a43Eu4lv0S-234" style="edgeStyle=orthogonalEdgeStyle;rounded=0;orthogonalLoop=1;jettySize=auto;html=1;exitX=0.5;exitY=1;exitDx=0;exitDy=0;entryX=0.5;entryY=0;entryDx=0;entryDy=0;entryPerimeter=0;" edge="1" parent="mvioNwK95yMqdUQ73LqQ-36" source="zS9Ld9DrV2a43Eu4lv0S-220" target="zS9Ld9DrV2a43Eu4lv0S-48">
          <mxGeometry relative="1" as="geometry" />
        </mxCell>
        <mxCell id="zS9Ld9DrV2a43Eu4lv0S-235" style="edgeStyle=orthogonalEdgeStyle;rounded=0;orthogonalLoop=1;jettySize=auto;html=1;exitX=0.5;exitY=1;exitDx=0;exitDy=0;entryX=0.5;entryY=0;entryDx=0;entryDy=0;entryPerimeter=0;" edge="1" parent="mvioNwK95yMqdUQ73LqQ-36" source="zS9Ld9DrV2a43Eu4lv0S-222" target="zS9Ld9DrV2a43Eu4lv0S-48">
          <mxGeometry relative="1" as="geometry" />
        </mxCell>
        <mxCell id="zS9Ld9DrV2a43Eu4lv0S-237" style="edgeStyle=orthogonalEdgeStyle;rounded=0;orthogonalLoop=1;jettySize=auto;html=1;exitX=0.5;exitY=1;exitDx=0;exitDy=0;entryX=0.5;entryY=0;entryDx=0;entryDy=0;entryPerimeter=0;" edge="1" parent="mvioNwK95yMqdUQ73LqQ-36" source="zS9Ld9DrV2a43Eu4lv0S-226" target="zS9Ld9DrV2a43Eu4lv0S-48">
          <mxGeometry relative="1" as="geometry" />
        </mxCell>
        <mxCell id="zS9Ld9DrV2a43Eu4lv0S-238" style="edgeStyle=orthogonalEdgeStyle;rounded=0;orthogonalLoop=1;jettySize=auto;html=1;exitX=0.5;exitY=1;exitDx=0;exitDy=0;entryX=0.5;entryY=0;entryDx=0;entryDy=0;entryPerimeter=0;" edge="1" parent="mvioNwK95yMqdUQ73LqQ-36" source="zS9Ld9DrV2a43Eu4lv0S-228" target="zS9Ld9DrV2a43Eu4lv0S-48">
          <mxGeometry relative="1" as="geometry" />
        </mxCell>
        <mxCell id="zS9Ld9DrV2a43Eu4lv0S-239" style="edgeStyle=orthogonalEdgeStyle;rounded=0;orthogonalLoop=1;jettySize=auto;html=1;exitX=0.5;exitY=1;exitDx=0;exitDy=0;entryX=0.5;entryY=0;entryDx=0;entryDy=0;entryPerimeter=0;" edge="1" parent="mvioNwK95yMqdUQ73LqQ-36" source="zS9Ld9DrV2a43Eu4lv0S-230" target="zS9Ld9DrV2a43Eu4lv0S-48">
          <mxGeometry relative="1" as="geometry" />
        </mxCell>
        <mxCell id="zS9Ld9DrV2a43Eu4lv0S-198" value="T" style="text;html=1;align=center;verticalAlign=middle;resizable=0;points=[];autosize=1;strokeColor=none;fillColor=none;" vertex="1" parent="mvioNwK95yMqdUQ73LqQ-36">
          <mxGeometry x="1740" y="2300" width="30" height="30" as="geometry" />
        </mxCell>
        <mxCell id="zS9Ld9DrV2a43Eu4lv0S-199" value="F" style="text;html=1;align=center;verticalAlign=middle;resizable=0;points=[];autosize=1;strokeColor=none;fillColor=none;" vertex="1" parent="mvioNwK95yMqdUQ73LqQ-36">
          <mxGeometry x="1780" y="2230" width="30" height="30" as="geometry" />
        </mxCell>
        <mxCell id="zS9Ld9DrV2a43Eu4lv0S-201" value="T" style="text;html=1;align=center;verticalAlign=middle;resizable=0;points=[];autosize=1;strokeColor=none;fillColor=none;" vertex="1" parent="mvioNwK95yMqdUQ73LqQ-36">
          <mxGeometry x="540" y="690" width="30" height="30" as="geometry" />
        </mxCell>
        <mxCell id="zS9Ld9DrV2a43Eu4lv0S-202" value="T" style="text;html=1;align=center;verticalAlign=middle;resizable=0;points=[];autosize=1;strokeColor=none;fillColor=none;" vertex="1" parent="mvioNwK95yMqdUQ73LqQ-36">
          <mxGeometry x="740" y="690" width="30" height="30" as="geometry" />
        </mxCell>
        <mxCell id="zS9Ld9DrV2a43Eu4lv0S-203" value="T" style="text;html=1;align=center;verticalAlign=middle;resizable=0;points=[];autosize=1;strokeColor=none;fillColor=none;" vertex="1" parent="mvioNwK95yMqdUQ73LqQ-36">
          <mxGeometry x="940" y="690" width="30" height="30" as="geometry" />
        </mxCell>
        <mxCell id="zS9Ld9DrV2a43Eu4lv0S-204" value="T" style="text;html=1;align=center;verticalAlign=middle;resizable=0;points=[];autosize=1;strokeColor=none;fillColor=none;" vertex="1" parent="mvioNwK95yMqdUQ73LqQ-36">
          <mxGeometry x="1130" y="700" width="30" height="30" as="geometry" />
        </mxCell>
        <mxCell id="zS9Ld9DrV2a43Eu4lv0S-205" value="T" style="text;html=1;align=center;verticalAlign=middle;resizable=0;points=[];autosize=1;strokeColor=none;fillColor=none;" vertex="1" parent="mvioNwK95yMqdUQ73LqQ-36">
          <mxGeometry x="1330" y="700" width="30" height="30" as="geometry" />
        </mxCell>
        <mxCell id="zS9Ld9DrV2a43Eu4lv0S-206" value="T" style="text;html=1;align=center;verticalAlign=middle;resizable=0;points=[];autosize=1;strokeColor=none;fillColor=none;" vertex="1" parent="mvioNwK95yMqdUQ73LqQ-36">
          <mxGeometry x="1530" y="690" width="30" height="30" as="geometry" />
        </mxCell>
        <mxCell id="zS9Ld9DrV2a43Eu4lv0S-207" value="T" style="text;html=1;align=center;verticalAlign=middle;resizable=0;points=[];autosize=1;strokeColor=none;fillColor=none;" vertex="1" parent="mvioNwK95yMqdUQ73LqQ-36">
          <mxGeometry x="1740" y="690" width="30" height="30" as="geometry" />
        </mxCell>
        <mxCell id="zS9Ld9DrV2a43Eu4lv0S-208" value="F" style="text;html=1;align=center;verticalAlign=middle;resizable=0;points=[];autosize=1;strokeColor=none;fillColor=none;" vertex="1" parent="mvioNwK95yMqdUQ73LqQ-36">
          <mxGeometry x="370" y="630" width="30" height="30" as="geometry" />
        </mxCell>
        <mxCell id="zS9Ld9DrV2a43Eu4lv0S-209" value="F" style="text;html=1;align=center;verticalAlign=middle;resizable=0;points=[];autosize=1;strokeColor=none;fillColor=none;" vertex="1" parent="mvioNwK95yMqdUQ73LqQ-36">
          <mxGeometry x="570" y="630" width="30" height="30" as="geometry" />
        </mxCell>
        <mxCell id="zS9Ld9DrV2a43Eu4lv0S-210" value="F" style="text;html=1;align=center;verticalAlign=middle;resizable=0;points=[];autosize=1;strokeColor=none;fillColor=none;" vertex="1" parent="mvioNwK95yMqdUQ73LqQ-36">
          <mxGeometry x="770" y="630" width="30" height="30" as="geometry" />
        </mxCell>
        <mxCell id="zS9Ld9DrV2a43Eu4lv0S-211" value="F" style="text;html=1;align=center;verticalAlign=middle;resizable=0;points=[];autosize=1;strokeColor=none;fillColor=none;" vertex="1" parent="mvioNwK95yMqdUQ73LqQ-36">
          <mxGeometry x="970" y="630" width="30" height="30" as="geometry" />
        </mxCell>
        <mxCell id="zS9Ld9DrV2a43Eu4lv0S-212" value="F" style="text;html=1;align=center;verticalAlign=middle;resizable=0;points=[];autosize=1;strokeColor=none;fillColor=none;" vertex="1" parent="mvioNwK95yMqdUQ73LqQ-36">
          <mxGeometry x="1170" y="630" width="30" height="30" as="geometry" />
        </mxCell>
        <mxCell id="zS9Ld9DrV2a43Eu4lv0S-213" value="F" style="text;html=1;align=center;verticalAlign=middle;resizable=0;points=[];autosize=1;strokeColor=none;fillColor=none;" vertex="1" parent="mvioNwK95yMqdUQ73LqQ-36">
          <mxGeometry x="1370" y="630" width="30" height="30" as="geometry" />
        </mxCell>
        <mxCell id="zS9Ld9DrV2a43Eu4lv0S-214" value="F" style="text;html=1;align=center;verticalAlign=middle;resizable=0;points=[];autosize=1;strokeColor=none;fillColor=none;" vertex="1" parent="mvioNwK95yMqdUQ73LqQ-36">
          <mxGeometry x="1570" y="630" width="30" height="30" as="geometry" />
        </mxCell>
        <mxCell id="zS9Ld9DrV2a43Eu4lv0S-246" value="" style="edgeStyle=orthogonalEdgeStyle;rounded=0;orthogonalLoop=1;jettySize=auto;html=1;" edge="1" parent="mvioNwK95yMqdUQ73LqQ-36" source="mvioNwK95yMqdUQ73LqQ-35" target="zS9Ld9DrV2a43Eu4lv0S-244">
          <mxGeometry relative="1" as="geometry">
            <mxPoint x="-400" y="670" as="sourcePoint" />
            <mxPoint x="-400" y="1070" as="targetPoint" />
          </mxGeometry>
        </mxCell>
        <mxCell id="zS9Ld9DrV2a43Eu4lv0S-244" value="int num = 0&lt;div&gt;int pair = 0&lt;/div&gt;&lt;div&gt;int sum = 0&lt;/div&gt;" style="whiteSpace=wrap;html=1;" vertex="1" parent="mvioNwK95yMqdUQ73LqQ-36">
          <mxGeometry x="260" y="280" width="120" height="60" as="geometry" />
        </mxCell>
        <mxCell id="mvioNwK95yMqdUQ73LqQ-70" value="&lt;font data-font-src=&quot;https://fonts.googleapis.com/css?family=Sarabun&quot; face=&quot;Sarabun&quot;&gt;โจทย์ปัญหา&lt;/font&gt;" style="swimlane;whiteSpace=wrap;html=1;" parent="WIyWlLk6GJQsqaUBKTNV-1" vertex="1">
          <mxGeometry x="-720" y="320" width="640" height="240" as="geometry" />
        </mxCell>
        <mxCell id="mvioNwK95yMqdUQ73LqQ-71" value="&lt;font data-font-src=&quot;https://fonts.googleapis.com/css?family=Sarabun&quot; face=&quot;Sarabun&quot; style=&quot;font-size: 14px;&quot;&gt;จงเขียน Flowchart เพื่อแสดงขั้นตอนการทำงาน ของเครื่องขายน้ำอัตโนมัติที่ชื่อว่า &quot;ตะพาบลอย&quot;&lt;br&gt;โดยจะต้องมีสินค้าดังนี้&lt;br&gt;&lt;u&gt;ประเภทน้ำ&lt;span style=&quot;white-space: pre;&quot;&gt;&#x9;&lt;/span&gt;&lt;span style=&quot;white-space: pre;&quot;&gt;&#x9;&lt;/span&gt;&lt;span style=&quot;white-space: pre;&quot;&gt;&#x9;&lt;/span&gt;&lt;span style=&quot;white-space: pre;&quot;&gt;&#x9;&lt;/span&gt;&lt;span style=&quot;white-space: pre;&quot;&gt;&#x9;&lt;/span&gt;&lt;span style=&quot;white-space: pre;&quot;&gt;&#x9;&lt;span style=&quot;white-space: pre;&quot;&gt;&#x9;&lt;/span&gt;ข&lt;/span&gt;นม&lt;/u&gt;&lt;br&gt;&lt;span style=&quot;white-space: pre;&quot;&gt;&#x9;&lt;/span&gt;- โค้ก กระป๋องละ 10 บาท&lt;span style=&quot;white-space: pre;&quot;&gt;&#x9;&lt;/span&gt;&lt;span style=&quot;white-space: pre;&quot;&gt;&#x9;&lt;/span&gt;&lt;span style=&quot;white-space: pre;&quot;&gt;&#x9;&lt;/span&gt;&lt;span style=&quot;white-space: pre;&quot;&gt;&#x9;&lt;/span&gt;- เมล็ดทานตะวัน 13 บาท&lt;br&gt;&lt;span style=&quot;white-space: pre;&quot;&gt;&#x9;&lt;/span&gt;- น้ำเขียว กระป๋องละ 12 บาท&lt;span style=&quot;white-space: pre;&quot;&gt;&#x9;&lt;/span&gt;&lt;span style=&quot;white-space: pre;&quot;&gt;&#x9;&lt;/span&gt;&lt;span style=&quot;white-space: pre;&quot;&gt;&#x9;&lt;/span&gt;- ถั่วแปบ 20 บาท&lt;br&gt;&lt;span style=&quot;white-space: pre;&quot;&gt;&#x9;&lt;/span&gt;- อเมริกาโน่ 30 บาท&lt;span style=&quot;white-space: pre;&quot;&gt;&#x9;&lt;/span&gt;&lt;span style=&quot;white-space: pre;&quot;&gt;&#x9;&lt;/span&gt;&lt;span style=&quot;white-space: pre;&quot;&gt;&#x9;&lt;/span&gt;&lt;span style=&quot;white-space: pre;&quot;&gt;&#x9;&lt;/span&gt;&lt;span style=&quot;white-space: pre;&quot;&gt;&#x9;&lt;/span&gt;- จิ้นส้มหมก 15 บาท&lt;br&gt;&lt;span style=&quot;white-space: pre;&quot;&gt;&#x9;&lt;/span&gt;- ลาเต้ หวานเจี๊ยบ 35 บาท&lt;span style=&quot;white-space: pre;&quot;&gt;&#x9;&lt;/span&gt;&lt;br&gt;&lt;br&gt;&lt;u&gt;สิ่งที่ระบบควรจะทำได้&lt;/u&gt;&lt;br&gt;&lt;span style=&quot;white-space: pre;&quot;&gt;&#x9;&lt;/span&gt;- ลูกค้าเลือกสินค้า, ระบบจะต้องรวมยอดขาย และรวมรายการสินค้าทั้งหมดที่ลูกค้าเลือก&lt;br&gt;&lt;span style=&quot;white-space: pre;&quot;&gt;&#x9;&lt;/span&gt;- สรุปยอดว่าเหลือเงินในตู้อีกเท่าไหร่ เหลือเหรียญอะไรบ้าง? ธนบัตรอะไรบ้าง? อย่างละเท่าไหร่?&lt;br&gt;&lt;br&gt;&lt;br&gt;&lt;/font&gt;" style="text;html=1;align=left;verticalAlign=middle;resizable=0;points=[];autosize=1;strokeColor=none;fillColor=none;fontSize=14;" parent="mvioNwK95yMqdUQ73LqQ-70" vertex="1">
          <mxGeometry x="25" y="30" width="580" height="240" as="geometry" />
        </mxCell>
      </root>
    </mxGraphModel>
  </diagram>
</mxfile>
